<svg xmlns="http://www.w3.org/2000/svg" id="Layer_1" x="0" y="0" version="1.1" viewBox="0 0 128 128" xml:space="preserve"><path fill="#e6e7e8" d="M120.883,68.21c0-6.341-4.605-12.158-12.24-16.681c2.325-8.926,1.233-16.146-3.19-20.569 c-4.424-4.424-11.645-5.514-20.569-3.19c-3.199-5.4-7.046-9.279-11.268-11.089c0.001-0.05,0.008-0.099,0.008-0.15 c0-2.989-2.432-5.421-5.421-5.421s-5.421,2.432-5.421,5.421c0,0.051,0.006,0.1,0.008,0.15c-4.222,1.81-8.068,5.689-11.268,11.089 c-8.926-2.324-16.146-1.233-20.569,3.19c-4.497,4.497-5.345,11.898-3.119,20.529c-5.193,3.064-8.982,6.726-10.896,10.744 c-0.132-0.01-0.264-0.02-0.399-0.02c-2.989,0-5.421,2.432-5.421,5.421c0,2.959,2.384,5.368,5.331,5.416 c1.702,4.465,5.705,8.531,11.386,11.882c-2.226,8.631-1.378,16.031,3.119,20.528c2.913,2.913,7.038,4.383,12.065,4.383 c2.605,0,5.456-0.402,8.502-1.195c4.524,7.637,10.341,12.242,16.682,12.242c6.341,0,12.159-4.605,16.682-12.242 c3.046,0.793,5.897,1.195,8.502,1.195c2.773,0,5.26-0.464,7.433-1.355c0.98,0.967,2.324,1.566,3.805,1.566 c2.989,0,5.421-2.432,5.421-5.421c0-1.477-0.595-2.817-1.557-3.795c1.728-4.214,1.791-9.654,0.152-15.946 C116.278,80.368,120.883,74.551,120.883,68.21z M63.208,18.637c0.823,1.946,2.752,3.316,4.995,3.316s4.172-1.369,4.995-3.316 c3.641,1.625,6.978,4.995,9.81,9.665c-0.602,0.184-1.209,0.379-1.825,0.593c-4.246,1.472-8.619,3.591-12.98,6.245 c-4.361-2.653-8.734-4.772-12.98-6.245c-0.616-0.214-1.223-0.409-1.825-0.593C56.23,23.631,59.567,20.262,63.208,18.637z M18.425,72.709c2.06-0.768,3.535-2.75,3.535-5.076c0-2.158-1.27-4.02-3.1-4.892c1.707-3.474,5.001-6.659,9.501-9.377 c1.428,4.715,3.729,9.748,6.815,14.845c-3.086,5.097-5.387,10.13-6.815,14.845C23.444,80.087,19.966,76.561,18.425,72.709z M68.203,118.89c-5.58,0-10.719-4.032-14.805-10.77c0.602-0.184,1.209-0.379,1.825-0.593c4.246-1.473,8.619-3.592,12.98-6.245 c4.361,2.653,8.735,4.772,12.98,6.245c0.616,0.214,1.223,0.409,1.825,0.593C78.922,114.858,73.784,118.89,68.203,118.89z M108.112,83.016c-0.184-0.602-0.379-1.209-0.593-1.825c-1.472-4.246-3.591-8.619-6.244-12.98 c2.653-4.361,4.772-8.734,6.244-12.98c0.214-0.616,0.409-1.223,0.593-1.825c6.738,4.086,10.771,9.225,10.771,14.805 C118.883,73.791,114.851,78.929,108.112,83.016z"/><path fill="#ffd7e5" d="M100.746,27.668c-7.015-7.015-21.48-4.672-36.543,4.645c-15.063-9.317-29.528-11.66-36.543-4.645 s-4.672,21.48,4.645,36.543c-9.317,15.063-11.66,29.528-4.645,36.543s21.48,4.672,36.543-4.645 c15.063,9.317,29.528,11.66,36.543,4.645s4.672-21.48-4.645-36.543C105.418,49.148,107.761,34.682,100.746,27.668z"/><circle cx="64.203" cy="64.211" r="8.046" fill="#fff"/><path fill="#6dc9f7" d="M59.157,67.211c0,1.451,0.39,2.809,1.062,3.984c1.176,0.672,2.533,1.062,3.984,1.062 c4.444,0,8.046-3.602,8.046-8.046c0-1.451-0.39-2.809-1.062-3.984c-1.176-0.672-2.533-1.062-3.984-1.062 C62.759,59.164,59.157,62.767,59.157,67.211z"/><circle cx="12.538" cy="63.634" r="4.421" fill="#6dc9f7"/><circle cx="64.203" cy="12.531" r="4.421" fill="#fa759e"/><circle cx="100.625" cy="100.633" r="4.421" fill="#0089ef"/><path fill="#3a2c60" d="M64.203,55.164c-4.988,0-9.046,4.058-9.046,9.046s4.058,9.046,9.046,9.046s9.046-4.058,9.046-9.046 S69.191,55.164,64.203,55.164z M64.203,71.257c-3.885,0-7.046-3.161-7.046-7.046s3.161-7.046,7.046-7.046 s7.046,3.161,7.046,7.046S68.088,71.257,64.203,71.257z"/><path fill="#3a2c60" d="M115.883,63.21c-0.552,0-1,0.448-1,1c0,2.08-0.574,4.15-1.706,6.152c-0.271,0.481-0.103,1.091,0.378,1.363 c0.155,0.088,0.325,0.129,0.491,0.129c0.349,0,0.688-0.183,0.872-0.508c1.304-2.306,1.965-4.707,1.965-7.136 C116.883,63.658,116.435,63.21,115.883,63.21z"/><path fill="#3a2c60" d="M110.449,73.988c-1.727,1.821-3.896,3.504-6.421,5.031c-1.427-4.704-3.722-9.723-6.798-14.807 c3.081-5.089,5.379-10.114,6.808-14.822c4.805,2.902,8.268,6.353,9.874,10.158c0.214,0.509,0.8,0.749,1.31,0.533 c0.509-0.215,0.748-0.801,0.533-1.31c-1.802-4.271-5.738-8.12-11.175-11.307c2.217-8.62,1.367-16.01-3.126-20.503 c-4.423-4.423-11.644-5.513-20.572-3.188c-3.199-5.395-7.045-9.268-11.265-11.078c0.002-0.055,0.008-0.108,0.008-0.163 c0-2.989-2.432-5.421-5.421-5.421s-5.421,2.432-5.421,5.421c0,0.055,0.007,0.108,0.008,0.163 c-4.238,1.817-8.098,5.718-11.305,11.148c-8.632-2.227-16.034-1.38-20.532,3.118c-4.498,4.498-5.345,11.9-3.118,20.534 c-5.189,3.064-8.985,6.723-10.898,10.739c-0.132-0.01-0.264-0.02-0.399-0.02c-2.989,0-5.421,2.432-5.421,5.421 c0,2.958,2.383,5.367,5.33,5.417c1.701,4.463,5.713,8.525,11.389,11.876c-2.227,8.633-1.38,16.036,3.117,20.534 c2.923,2.923,7.07,4.307,11.985,4.307c2.644,0,5.519-0.424,8.536-1.201c4.53,7.684,10.366,12.324,16.729,12.324 c6.341,0,12.158-4.605,16.682-12.242c3.047,0.793,5.897,1.195,8.502,1.195c2.774,0,5.268-0.456,7.44-1.348 c0.979,0.963,2.32,1.559,3.798,1.559c2.989,0,5.421-2.432,5.421-5.421c0-1.492-0.606-2.846-1.585-3.827 c1.704-4.265,1.681-9.728,0.126-15.807c2.891-1.693,5.365-3.58,7.314-5.633c0.38-0.401,0.363-1.034-0.037-1.414 C111.463,73.571,110.83,73.588,110.449,73.988z M102.351,79.983c-4.06,2.211-8.913,4.044-14.294,5.421 c0.736-3.371,1.308-6.921,1.682-10.616c2.356-2.887,4.468-5.811,6.336-8.725C98.936,70.877,101.051,75.594,102.351,79.983z M88.267,64.21c0,3.346-0.159,6.614-0.454,9.78c-2.03,2.447-4.228,4.87-6.594,7.236c-2.362,2.362-4.781,4.557-7.225,6.585 c-3.191,0.302-6.466,0.463-9.791,0.463c-3.347,0-6.616-0.159-9.783-0.454c-2.464-2.044-4.885-4.246-7.233-6.594 c-2.366-2.366-4.564-4.789-6.594-7.236c-0.295-3.166-0.454-6.434-0.454-9.78c0-3.346,0.159-6.614,0.455-9.78 c2.03-2.447,4.228-4.87,6.594-7.236c2.347-2.347,4.768-4.549,7.232-6.593c3.167-0.296,6.436-0.456,9.784-0.456 c3.331,0,6.597,0.162,9.772,0.461c2.45,2.031,4.876,4.22,7.244,6.587c2.366,2.366,4.563,4.789,6.593,7.237 C88.108,57.597,88.267,60.865,88.267,64.21z M90.036,57.207c1.797,2.332,3.436,4.675,4.905,7.004 c-1.47,2.33-3.112,4.674-4.911,7.007c0.152-2.294,0.237-4.63,0.237-7.007C90.267,61.836,90.187,59.499,90.036,57.207z M82.633,45.781c-1.678-1.678-3.387-3.266-5.114-4.779c2.914,0.381,5.729,0.885,8.423,1.498 c0.606,2.678,1.102,5.486,1.479,8.397C85.908,49.169,84.312,47.46,82.633,45.781z M74.793,38.686 c-2.888-2.358-5.813-4.471-8.728-6.341c3.963-2.346,7.924-4.227,11.773-5.561c0.743-0.258,1.47-0.484,2.189-0.697 c2.184,4.023,4.024,8.855,5.405,14.283C82.044,39.63,78.482,39.062,74.793,38.686z M71.188,38.378 c-2.292-0.152-4.624-0.232-6.985-0.232c-2.371,0-4.705,0.079-6.994,0.23c2.311-1.78,4.649-3.421,6.994-4.896 C66.527,34.946,68.862,36.586,71.188,38.378z M53.605,38.683c-3.699,0.376-7.256,0.943-10.629,1.681 c1.386-5.445,3.233-10.29,5.427-14.32c4.385,1.297,9.101,3.424,13.911,6.279C59.381,34.214,56.464,36.34,53.605,38.683z M50.892,40.989c-1.736,1.525-3.447,3.12-5.118,4.791c-1.682,1.682-3.274,3.396-4.79,5.127 c0.378-2.923,0.877-5.742,1.486-8.431C45.155,41.868,47.971,41.368,50.892,40.989z M38.675,53.625 c-2.359,2.89-4.473,5.816-6.343,8.733c-2.869-4.826-4.991-9.555-6.291-13.953c4.028-2.191,8.875-4.034,14.315-5.418 C39.617,46.362,39.05,49.923,38.675,53.625z M38.37,57.213c-0.151,2.29-0.231,4.625-0.231,6.997 c0,2.377,0.086,4.712,0.237,7.006c-1.798-2.332-3.44-4.676-4.91-7.006C34.934,61.884,36.575,59.543,38.37,57.213z M38.667,74.787c0.375,3.707,0.95,7.268,1.689,10.649c-5.44-1.384-10.288-3.225-14.317-5.415 c1.301-4.4,3.422-9.13,6.292-13.957C34.2,68.977,36.311,71.901,38.667,74.787z M40.987,77.518 c1.515,1.729,3.106,3.442,4.787,5.122c1.67,1.67,3.379,3.264,5.114,4.787c-2.919-0.378-5.733-0.877-8.419-1.485 C41.86,83.256,41.365,80.438,40.987,77.518z M53.604,89.738c2.862,2.345,5.78,4.472,8.714,6.364 c-4.815,2.86-9.533,4.974-13.922,6.272c-2.19-4.029-4.034-8.872-5.418-14.313C46.35,88.798,49.907,89.362,53.604,89.738z M57.205,90.042c2.29,0.151,4.625,0.232,6.998,0.232c2.362,0,4.7-0.082,7.003-0.235c-2.33,1.796-4.671,3.437-6.998,4.905 C61.86,93.468,59.519,91.825,57.205,90.042z M74.772,89.74c3.683-0.373,7.253-0.938,10.656-1.676 c-1.38,5.422-3.216,10.251-5.396,14.272c-0.72-0.213-1.449-0.441-2.193-0.699c-3.849-1.335-7.811-3.216-11.775-5.563 C68.973,94.21,71.889,92.092,74.772,89.74z M77.525,87.413c1.725-1.511,3.433-3.096,5.109-4.772 c1.68-1.68,3.271-3.393,4.786-5.122c-0.377,2.91-0.87,5.718-1.476,8.396C83.245,86.53,80.429,87.032,77.525,87.413z M96.075,62.357c-1.867-2.913-3.987-5.835-6.342-8.721c-0.375-3.697-0.94-7.253-1.676-10.625 c5.409,1.382,10.262,3.217,14.303,5.414C101.058,52.818,98.939,57.539,96.075,62.357z M89.39,24.572 c4.482,0,8.121,1.274,10.649,3.802c3.955,3.955,4.732,10.461,2.839,18.139c-4.362-2.319-9.557-4.239-15.321-5.652 c-1.419-5.772-3.346-10.946-5.664-15.282C84.587,24.913,87.101,24.572,89.39,24.572z M64.203,9.11 c1.887,0,3.421,1.535,3.421,3.421c0,1.886-1.535,3.421-3.421,3.421s-3.421-1.535-3.421-3.421 C60.782,10.645,62.316,9.11,64.203,9.11z M59.212,14.648c0.826,1.94,2.752,3.305,4.991,3.305s4.165-1.364,4.991-3.305 c3.641,1.624,6.978,4.988,9.811,9.655c-0.601,0.184-1.207,0.378-1.822,0.591c-4.258,1.477-8.644,3.603-13.017,6.267 c-5.083-3.074-10.102-5.367-14.805-6.792C52.203,19.668,55.554,16.279,59.212,14.648z M28.367,28.375 c2.601-2.601,6.303-3.832,10.716-3.832c2.305,0,4.81,0.351,7.448,1.003c-2.326,4.342-4.258,9.527-5.681,15.313 c-5.786,1.423-10.974,3.353-15.317,5.678C23.634,38.848,24.408,32.334,28.367,28.375z M9.117,63.633 c0-1.886,1.535-3.421,3.421-3.421c1.886,0,3.421,1.535,3.421,3.421c0,1.887-1.535,3.421-3.421,3.421 C10.652,67.055,9.117,65.52,9.117,63.633z M14.423,68.71c2.062-0.768,3.537-2.751,3.537-5.077c0-2.158-1.27-4.019-3.099-4.891 c1.707-3.474,5-6.662,9.5-9.38c1.428,4.716,3.729,9.75,6.816,14.848c-3.086,5.097-5.387,10.13-6.815,14.845 C19.446,76.087,15.964,72.561,14.423,68.71z M28.367,100.046c-3.96-3.96-4.733-10.476-2.833-18.165 c4.344,2.326,9.526,4.262,15.315,5.685c1.422,5.786,3.354,10.971,5.678,15.314C38.84,104.78,32.326,104.006,28.367,100.046z M64.203,114.89c-5.6,0-10.755-4.061-14.849-10.843c4.702-1.423,9.718-3.721,14.802-6.793 c4.377,2.667,8.766,4.795,13.027,6.273c0.616,0.214,1.223,0.409,1.825,0.593C74.922,110.858,69.783,114.89,64.203,114.89z M100.626,104.054c-1.887,0-3.421-1.535-3.421-3.421c0-1.886,1.535-3.421,3.421-3.421c1.886,0,3.421,1.535,3.421,3.421 C104.046,102.52,102.512,104.054,100.626,104.054z M102.8,95.671c-0.666-0.293-1.401-0.459-2.174-0.459 c-2.989,0-5.421,2.432-5.421,5.421c0,0.772,0.165,1.505,0.456,2.17c-3.642,1.365-8.325,1.389-13.764,0.044 c2.315-4.333,4.239-9.502,5.657-15.269c5.748-1.4,10.953-3.309,15.331-5.631C104.179,87.229,104.205,91.952,102.8,95.671z"/></svg>