<?xml version="1.0" encoding="utf-8"?>
<!-- Generator: Adobe Illustrator 25.0.0, SVG Export Plug-In . SVG Version: 6.00 Build 0)  -->
<svg version="1.1" id="Слой_1" xmlns="http://www.w3.org/2000/svg" xmlns:xlink="http://www.w3.org/1999/xlink" x="0px" y="0px"
	 viewBox="0 0 1920 1080" style="enable-background:new 0 0 1920 1080;" xml:space="preserve">
<style type="text/css">
	.st0{clip-path:url(#SVGID_2_);}
	.st1{fill:#FF6900;}
	.st2{fill:#FCA500;}
	.st3{fill:#813210;}
	.st4{fill:#8F3F1D;}
	.st5{fill:#632E17;}
	.st6{fill:#9D7B51;}
	.st7{fill:#2D1F04;}
	.st8{opacity:0.23;}
	.st9{fill:#3F2719;}
	.st10{fill:#CAA77A;}
	.st11{fill:#B6B1AE;}
	.st12{fill:#FFDB1F;}
	.st13{fill:#FFDBAF;}
	.st14{opacity:0.95;}
	.st15{fill:#251707;}
	.st16{fill:#FFFFFF;}
	.st17{fill:#FCBC3D;}
	.st18{clip-path:url(#SVGID_4_);}
</style>
<g>
	<defs>
		<rect id="SVGID_1_" x="473.1" width="973.8" height="1080"/>
	</defs>
	<clipPath id="SVGID_2_">
		<use xlink:href="#SVGID_1_"  style="overflow:visible;"/>
	</clipPath>
	<g class="st0">
		<path class="st1" d="M688.5,384.8c-62.7,133.9-98.6,28.5-100.2,28.5c-26.8,41.2-58.5,132.8-56.3,168c48.6-16,51.2,69.2,18.8,85.3
			c-63.2,31.2-51.4-43-58.4-42.3c-7,0.7-91,304,156.2,310.2c21.8,0.6,123.3-14.8,144.5-9.5c38.2,9.5,9-3.3,48.4-9.9
			c13.2-2.2,27.1,13.6,38.5-32.9c11.4-46.6-12.1,14.2,13.2,22c71.5,22,354,19.4,369.7,7.7c23.1-17.4,82.5-49.4,93.5-141.7
			c4.7-39.3-45-152.3-46.9-127.4c-2.6,36.3-60.9,60.4-78.5-7.7c-21.8-84.1,63.5-70.3,64.6-72.8c37.7-83.1-43.9-178.1-49.4-178.1
			c-1.5,0-47.1,77.4-58.1-9.4c-6.4-50.4-34.6-104-63.4-145.1c-5-7.1-40.2-50.4-47.3-50.4c-4.5,0,7.2,68.1-26.9,65.9
			C997.7,242,938,111.9,828,66.9c-0.7-0.3,30.6,74.9-36,135.5c-8.3,7.5-83.6,140.7-83.6,159.2"/>
		<path class="st2" d="M1130,921.7c157-30.8,87.4-152.6,85.5-152.6c-1.3,0-68,75-84.7,0.2c-5.1-22.7,42.6-101.2,51.8-124.3
			c19.2-47.9,21.2-63.2-0.2-108.6c-2.2-4.6-41.7-65.1-42.8-65.1c-0.8,0,0,69.6-40.8,75.1c-7,0.9-6.5-24.3-6.5-30
			c0-29.7,0-62.6-3.2-92.3c-2.8-25.5-4.9-51.9-14-76.1c-17.1-45.5-77.1-90.9-118.2-113.7c-11.1-6.1-32.2-27.9-45.1-27.9
			c-3.3,0-1.7,1.5-2.2,3.2c-4.9,17.3-15.4,33.1-24.7,48.3c-35.7,57.9-78.2,112.8-116.1,169.5C731,483.8,692.7,544,663.5,606.3
			c-10.8,23.1,19,131.4-5.1,139.4c-71.5,23.6-84.9-44.8-85.5-44.7c-7.7,2.6-45.7,232.8,95.7,232.8
			C669.7,933.8,1116.3,924.3,1130,921.7z"/>
		<path class="st3" d="M1358.3,514.4c0.3,0.5,0.5,1.1,0.8,1.6L1358.3,514.4z"/>
		<path class="st4" d="M1117.4,219.4c5.1,4.1,48-6.1,53.8,2.8c6.6,10.1-4.5,33.3-5.4,44.4c-3.2,37.3-33.9,173.9-39.4,206
			c-1.2,6.8-4.5,13.3-4.9,20.5c0,0.8,0.3,7.9-0.7,8.1c-3,0.3-11.2-14.9-12.4-17.8c-1.2-2.9-14.1-15.4-13.9-16.8
			c2-9.3,5.1-18,5.7-27.7c3.1-56,0.7-112.1,10.1-167.7C1111.4,265.3,1116.3,218.5,1117.4,219.4z"/>
		<path class="st4" d="M927.8,758c3.6,1.4-1.2-4.1-1.6,0.4c-0.6,6,1.8,59.2,0.5,60.2c-0.3,0.3-60.5,0-67.9-0.7
			c-26-2.6-52.6-2-78.5-1.7c-23.1,0.3-99.9,5.5-114.8,0.3c-2.1-0.7-8.7-72.9-6.5-76.3c2.4,0,4.8,0.2,7.1,0.7
			c20.7,2,39.1-0.8,59.9-2.6c27.5-2.3,53.4,4.4,80.7,4.3C848.9,742.5,888.3,743,927.8,758z"/>
		<path class="st4" d="M672.6,818.9c-3.8,29.5,9.8,57.7,15.4,86.3c3.8,19.1,5.3,38.2,9.6,57.1c4.2,18,1.5,45.3,11,61.2
			c2,3.4,16.6,2.6,19.3,0c4.3-4.3,1.3-30.5,2.1-36.4c4.8-38.7,6.3-121.1-3.3-159.2c-3.3-13.2,10.3-2.2,1.9-13.3
			C726.5,811.5,673.1,815.2,672.6,818.9z"/>
		<path class="st4" d="M877.3,819.3c-2.3,0.8,3.7,30.8,4.3,34.4c1,4.9,2.1,9.8,3,14.7c8,41.5,8.2,84.9,17.7,125.9
			c0.8,3.3,4.8,35.6,6.4,37.2c2.1,2.1,13.3-3,15.8-3c1.9,0,5.6,0.8,7.1-0.7c4-4,0.7-14.8,0.4-19.9c-1-18.1-1-36.8-2.6-54.9
			c-3-33.2,0.4-66.5,0.4-99.6c0-5.1,3.3-30.2,1.1-33.3c-1.4-2.1-8-0.4-10.3-0.8C908.3,817.1,889.1,815,877.3,819.3z"/>
		<path class="st4" d="M1027.3,798.1c-0.3-6.1,19.8-6.7,24.5-7.9c3-0.8,9-4.5,9-1.5c-0.3,13.7-1.7,27.3-4.2,40.8
			c-1.4,8.4-1.8,16.9-1.1,25.4c1.1,8.4-0.8,16.9-1.5,25.2c-1.4,16.8-0.2,33.7-2.3,50.3c-1.4,11.1-0.4,22.7-0.4,33.8
			c0,1.5,1.6,10.5-0.4,10.9c-2.6,0.5-14.1,1.4-16.2,0c-4.2-2.8-1.9-39.3-1.9-45.1c0-6.6-2.1-13.1-3-19.5c-3.3-23.1,0.3-47.2-3-70.3
			C1025,827.1,1027.8,811.1,1027.3,798.1z"/>
		<path class="st4" d="M1007.1,259.7c6.5-5.7,40.4-0.3,48.6,0c10.3,0.3,20.4,0,30.7-0.8c5.1-0.3,21.7-1.8,25.6,1
			c3.9,2.8-3.2,16.8-3.9,19.9c-0.5,2.2,0.5,14.1-1,14.6c-6.2,1.9-17.7-0.2-24.2-0.6c-12.4-0.7-24.8-0.4-37.1,0.9
			c-3.8,0.4-17.1,1.7-20.6-0.8c-5.5-4-8.3-14.6-10.9-20.7C1013,270.1,1006,260.6,1007.1,259.7z"/>
		<path class="st4" d="M1040.2,349c9.1-7,37.2,0,50.2-0.3c3,0,11.2-2.6,13.5,0c4.4,4.7-1.5,43.3-3,49c-0.6,2.6,0,11.8-1.8,13.1
			c-3.8,2.4-12.6,0-16.8,0.3c-2.9,0.3-29.9-1.8-31.8-3.9c-5-5.4-3.8-20.7-5.7-27.8C1042.7,371.6,1033.1,354.4,1040.2,349z"/>
		<path class="st5" d="M1176.9,222.6c1.8-6.5,8.9,9.6,10.3,14.6c3.5,14-7.7,39.9-10.5,54c-8.2,41-16.6,81.8-22.6,123.1
			c-3.3,22.8-6.5,47-12,69c-0.7,2.7-5.3,38.8-11.3,30.8c-11.3-15,3.1-64.1,5.1-81c6.1-48.7,19.9-97.2,27.8-145.6
			C1169.3,253.7,1170.8,244,1176.9,222.6z"/>
		<path class="st5" d="M1058.8,785.3c9.6-5.1,20.2-3.2,29.4-9.8c0.4-0.3,0.8-1,1.4-0.8c2.1,0.5-0.2,10.1-0.4,11.2
			c-2.7,11.4-2.1,23.1-4.1,34.6c-5.8,32.5-6.4,67.4-7.6,100.5c0,2.7-4.3,40.1-4.7,40.4c-1.8,1.5-5.1,3.4-7.5,5.1
			c-2.4,1.7-5.8,1-8.4,2.6c-0.4,0.3-2.9,2.4-3.4,2.1c-1.1-0.6,0-3.1,0-4c0.5-9.2,0-18.5,0-27.7c0.4-34.8-3.3-71.1,2.1-105.4
			C1057.1,824.3,1051.4,789.2,1058.8,785.3z"/>
		<path class="st5" d="M931.8,820.6c1-2.6,12.4-3.4,16.1-3.9c3.7-0.5,15.6-5.7,19-4.1c0,0-2.3,12.6-2.4,13.2
			c-2.4,13.5-4.6,26.7-5.8,40.6c-1.8,22,1.7,44.8-0.7,66.7c-1.9,17.1-5.9,34.1-7.7,51.1c-0.6,5.7,5.1,27.1,2,29.2
			c-1.9,1.2-12.8,12.5-15.2,13.1c-4.8,1.2-4.4-15.4-4.4-18.3c0-19.4-4.2-40.5-1-59.5c1.4-8.7-2.4-18.3-2.4-27.1
			c0-23.1,0.8-47.2,2.7-70C932.6,844.1,929.1,827.5,931.8,820.6z"/>
		<path class="st5" d="M923.7,761c-0.3,0,4.5,55.3,3.4,57.1c-1.1,1.8,16.6-3.4,19.2-3.7c22.4-2.6,43-13.6,65.1-17
			c0.7,0,1.4,0,2.1-0.2c12.1-3.1,23.5-6.7,35.4-10.3c1.6-0.3,3.2-0.7,4.8-1.2c0.2-0.8-13-2.7-14.3-2.9c-8.8-1.8-17.4-4.4-25.7-7.9
			c-12.1-4.6-23.3-9.9-35.2-15.1c-7-3-12.3-12.8-20.8-12.6c-9.1,0.3-17,9.7-25.7,10.4C928.8,757.7,925.1,761.2,923.7,761z"/>
		<path class="st6" d="M1064.6,172.1l-2-2.1L1064.6,172.1z"/>
		<path class="st7" d="M1094.8,490.5h-0.3c-0.8-0.1-1.6-0.4-2.2-1.1c-0.6-0.6-0.9-1.4-0.9-2.3v-0.3l21.1-268.5
			c0.1-0.8,0.5-1.6,1.2-2.2c0.6-0.6,1.5-0.8,2.3-0.8c0.8,0,1.7,0.4,2.2,1c0.6,0.6,1,1.4,1,2.2v0.3l-21.1,268.5
			c-0.1,0.8-0.5,1.6-1.1,2.2C1096.4,490.1,1095.6,490.5,1094.8,490.5z"/>
		<path class="st7" d="M961.2,262.1c-0.9,0-1.7-0.4-2.4-1c-0.6-0.6-1-1.5-1-2.4s0.4-1.7,1-2.4c0.6-0.6,1.5-1,2.4-1l74-0.3l76.2-0.9
			c0.9,0,1.7,0.4,2.4,1c0.6,0.6,1,1.5,1,2.3c0,0.4-0.1,0.9-0.2,1.3c-0.2,0.4-0.4,0.8-0.7,1.1c-0.3,0.3-0.7,0.6-1.1,0.7
			c-0.4,0.2-0.8,0.3-1.3,0.3l-76.2,0.9L961.2,262.1L961.2,262.1z"/>
		<path class="st7" d="M1108.9,297.5l-125.2-0.3c-0.8-0.1-1.6-0.5-2.2-1.1c-0.6-0.6-0.9-1.4-0.9-2.3s0.3-1.7,0.9-2.3s1.4-1,2.2-1.1
			l125.1,0.4c0.9,0,1.8,0.4,2.4,1c0.6,0.6,1,1.5,1,2.4c0,0.9-0.4,1.7-1,2.4C1110.6,297.1,1109.7,297.5,1108.9,297.5L1108.9,297.5z"
			/>
		<path class="st7" d="M1105.2,351.6h-99.2c-0.9,0-1.7-0.4-2.4-1c-0.6-0.6-1-1.5-1-2.4c0-0.9,0.4-1.7,1-2.4c0.6-0.6,1.5-1,2.4-1
			h99.2c0.9,0,1.7,0.4,2.4,1c0.6,0.6,1,1.5,1,2.4c0,0.9-0.4,1.7-1,2.4C1107,351.2,1106.1,351.6,1105.2,351.6z"/>
		<path class="st7" d="M1015.1,412.8c-0.9,0-1.7-0.4-2.4-1c-0.6-0.6-1-1.5-1-2.4c0-0.9,0.4-1.7,1-2.4c0.6-0.6,1.5-1,2.4-1h85.5
			c0.9,0,1.7,0.4,2.4,1c0.6,0.6,1,1.5,1,2.4c0,0.9-0.4,1.8-1,2.4c-0.6,0.6-1.5,1-2.4,1H1015.1z"/>
		<path class="st7" d="M1127.5,544.6c-0.2,0-0.4,0-0.6,0c-0.9-0.2-1.6-0.7-2.1-1.5c-0.5-0.7-0.7-1.6-0.5-2.5l45.6-234.2l14.5-70.4
			l-9.7-12.8c-0.3-0.3-0.5-0.8-0.7-1.2c-0.1-0.4-0.2-0.9-0.1-1.4c0-0.5,0.2-0.9,0.4-1.3c0.2-0.4,0.5-0.7,0.9-1
			c0.4-0.3,0.8-0.5,1.2-0.6c0.4-0.1,0.9-0.1,1.4,0c0.5,0.1,0.9,0.3,1.3,0.5c0.4,0.3,0.7,0.6,1,1l10.6,14.2c0.3,0.4,0.5,0.8,0.6,1.2
			c0.1,0.4,0.1,0.9,0,1.3l-14.8,71.8l-45.6,234.1c-0.2,0.8-0.6,1.5-1.2,2C1129,544.4,1128.3,544.6,1127.5,544.6z"/>
		<path class="st5" d="M728.9,1023.9l13.4-12l2.9-112.1L733.7,883"/>
		<path class="st7" d="M728.8,1027.3c-0.7,0-1.4-0.2-1.9-0.6c-0.6-0.4-1-0.9-1.2-1.6c-0.2-0.6-0.3-1.3-0.1-2c0.2-0.7,0.5-1.3,1-1.7
			l12.4-11l2.8-109.6l-10.9-15.9c-0.5-0.7-0.7-1.6-0.5-2.5c0.2-0.9,0.7-1.7,1.4-2.2c0.7-0.5,1.6-0.7,2.5-0.5s1.7,0.7,2.2,1.4
			l11.5,16.8c0.4,0.6,0.6,1.3,0.6,2l-2.9,112.1c0,0.5-0.1,0.9-0.3,1.3c-0.2,0.4-0.5,0.8-0.8,1.1l-13.4,12
			C730.4,1027,729.6,1027.3,728.8,1027.3z"/>
		<g class="st8">
			<path class="st9" d="M1012.4,596.8c18.1-7.1,34.4-20,53.1-26.7c15.7-5.7,30.7-2.8,45.9-6.3"/>
		</g>
		<g class="st8">
			<path class="st9" d="M1011.2,593.7c18.9-15.7,71.3-37.1,97.6-34.7L1011.2,593.7z"/>
		</g>
		<g class="st8">
			<path class="st9" d="M1018.1,596.2c-0.7,0-1.3-0.2-1.9-0.6c-0.6-0.4-1-0.9-1.2-1.6c-0.2-0.4-0.2-0.8-0.2-1.3
				c0-0.4,0.1-0.9,0.3-1.3c0.2-0.4,0.4-0.8,0.7-1.1c0.3-0.3,0.7-0.5,1.1-0.7c6.8-2.6,12.4-8.2,18.3-14.2c5.9-5.9,12-12,19.8-15.4
				c11.8-5.1,24.1-9.2,36-13.2c8.6-2.8,17.4-5.8,25.8-9.1c0.4-0.2,0.9-0.2,1.3-0.2c0.4,0,0.9,0.1,1.3,0.3c0.4,0.2,0.8,0.4,1.1,0.8
				s0.5,0.7,0.7,1.1c0.2,0.4,0.2,0.9,0.2,1.3c0,0.4-0.1,0.9-0.3,1.3c-0.2,0.4-0.4,0.8-0.8,1.1c-0.3,0.3-0.7,0.5-1.1,0.7
				c-8.6,3.3-17.5,6.3-26.2,9.2c-11.7,3.9-23.9,7.9-35.4,13c-6.6,2.9-12,8.3-17.7,14c-6.1,6.1-12.5,12.5-20.6,15.6
				C1018.9,596.1,1018.5,596.2,1018.1,596.2z"/>
		</g>
		<g class="st8">
			<path class="st9" d="M1012.3,601.7h-0.3c-0.4,0-0.9-0.2-1.3-0.4c-0.4-0.2-0.7-0.5-1-0.8c-0.3-0.3-0.5-0.7-0.6-1.1
				c-0.1-0.4-0.2-0.9-0.1-1.3c1-10.7,59.1-38.6,66.3-40.7c3.8-1.1,11-2.6,16.4-3.8c5.4-1.2,8.6-1.7,10.4-2h0.4
				c2.1-0.2,2.4,0,3.1,0.8c0.4,0.4,0.7,1,0.9,1.5c0.2,0.6,0.1,1.2,0,1.8c-0.2,0.6-0.5,1.1-0.9,1.5c-0.4,0.4-1,0.7-1.6,0.8h-0.4
				c-1.7,0.3-19.9,3.7-26.4,5.7c-11.5,4.6-22.7,10.1-33.4,16.2c-20.3,11.2-27.2,17.1-28,18.9c-0.1,0.8-0.6,1.5-1.2,2
				C1013.9,601.4,1013.1,601.7,1012.3,601.7z"/>
		</g>
		<g class="st8">
			<path class="st9" d="M1028.6,727c-7,0-14.1-0.7-20.7-1.4l-5.1-0.5c-0.4,0-0.9-0.2-1.3-0.4c-0.4-0.2-0.7-0.5-1-0.8
				c-0.3-0.3-0.5-0.7-0.6-1.2c-0.1-0.4-0.2-0.9-0.1-1.3c0-0.4,0.2-0.9,0.4-1.3c0.2-0.4,0.5-0.7,0.8-1c0.3-0.3,0.7-0.5,1.2-0.6
				c0.4-0.1,0.9-0.2,1.3-0.1l5.1,0.5c14.3,1.4,30.6,3.1,43.1-3.1c20.7-10.1,36-26,41.9-43.4c2.9-8.5,3.6-17.5,2.1-26.4
				c-21.9,19.1-58.5,36.4-86.4,35.6c-17.7-0.6-30.8-8.2-38-22.1c-1.8-3.3-2.8-7-3.1-10.8c-0.3-3.8,0.2-7.6,1.4-11.1
				c4.8-14.9,19.8-27,31.2-32.8c22.5-11.4,44.8-14.5,62.8-8.5c14,4.6,24.8,14.4,32.1,29c1.3,2.6,2.4,5.2,3.4,7.9
				c2.1-2.3,4.1-4.8,5.7-7.5c10.8-18,13.5-33,7.4-42.3c-5.8-8.8-19.3-12.4-38-10c-10.4,1.6-20.6,4.6-30.2,9c-3,1.2-6,2.4-9,3.6
				c-11.5,4.5-23.5,9.1-32.8,16.8c-0.3,0.3-0.7,0.6-1.2,0.8c-0.4,0.2-0.9,0.3-1.4,0.2c-0.5,0-0.9-0.1-1.4-0.3s-0.8-0.5-1.1-0.9
				c-0.3-0.4-0.5-0.8-0.7-1.2c-0.1-0.5-0.2-0.9-0.1-1.4c0.1-0.5,0.2-0.9,0.5-1.3c0.3-0.4,0.6-0.7,1-1c10.3-8.5,22.7-13.3,34.7-18
				c3-1.2,6-2.3,8.9-3.5c10.1-4.6,20.9-7.8,31.9-9.4c21.4-2.7,37.2,1.9,44.5,13c7.6,11.6,5,29.2-7.3,49.4c-2.6,4.2-5.7,8.1-9.3,11.5
				c2.8,11.2,2.3,23-1.4,33.9c-6.5,19.2-23,36.4-45.2,47.3C1046.4,725.6,1037.5,727.3,1028.6,727z M1044.2,600.1
				c-14.2,0.4-28,4.1-40.5,10.8c-11.1,5.6-24,16.7-27.9,28.8c-0.9,2.7-1.3,5.6-1.1,8.5c0.2,2.9,1,5.7,2.4,8.3
				c6.1,11.7,17,17.9,32.3,18.5c28.5,0.9,64.7-18.3,84.3-36.4c-1.1-3.5-2.5-7-4.2-10.3c-6.4-12.8-15.9-21.5-28.3-25.6
				C1055.8,600.9,1050,600.1,1044.2,600.1z"/>
		</g>
		<path class="st10" d="M716.7,197.7c-6,0-21.9,31.1-25.4,37.4c-26.5,46.8-16.8,101.4,4.2,148.2c5.4,12,3,15.7,8.5,26.9
			c2.6,5.1,11.5,17.2,11.5,22.7v3.7c-0.8-4.4-2-8.7-3.6-12.8c-0.6-1.2-3.2-3.7-1.8-3.7c0.7,0,1.6,1.9,1.8,2.6
			c5.9,14.8-0.8,33.6,3,49c2.6,10.7,22.8,23.5,33.9,26.3c42,10.6,84.5-0.6,126.6-0.6c10.5,0,40.9,3.3,49.7-5.5
			c7.5-7.5,9.8-17.2,15.8-25.6c8.1-11.5,29.4-4.3,42.4-9.6c13.5-5.4,27.9-23.1,41.1-19.8c3.4,0.8,13.6,5.1,17,1.8
			c5.5-5.5,8-21.8,6.7-28.8c-3.7-18.7-2.6-46.2-6-64.3c-2.8-12.3-6.7-24.4-11.5-36.1c-18-47-43-85.3-83-114.7
			c-10-7.4-26.7-20.4-38.2-26.1c-11.4-5.8-23.4-5.4-34.5-11c-14.6-7.4-30.4-16.9-46-20.8c-4-1,1.6,6,1.2,6.7
			c-0.4,0.7-10.3,0.9-11.5,0.6c-13.1-2.6-26.3-2.3-38.7-8c-2.1-0.9-9.7-8.8-12.1-8c-7.4,2.6,3.6,23.3,3.6,23.3
			c-0.5-0.9-1.1-1.8-1.8-2.6c-3.6-2.9-11.7-5.1-16.4-6.1c-9.8-2-14,4.4-22.4,6.1c-1.1,0.2-10.9,2.8-10.9,3.1
			c0,2.1,15.8,4.6,15.8,6.7c0,2.2-3.4,1.1-4.2,1.2c-4.7,0.7-31,11.9-29.1,17.8c0.8,2.6,14.8,2.6,17.6,4.3c0.8,0.3,1.6,0.5,2.4,0.6
			c0,0-11,1.7-16.3,3.1c-6.7,1.7-18.9,14.5-6.8,14.5"/>
		<path class="st10" d="M650.6,533.8c0.5-1.6,1-5.6,2.3-4.5c16.9,14.8,38,23.9,60.4,26.1c2.6,8.3,2.3,14.9,7.2,19.8
			c1.7,1.7,6.5,1.8,7.2,4.5c0.7,2.7-9.6,16.7-10.8,21.6c-2.9,13.4-2.6,27.2,0.9,40.4c8.1,32.3,37.9,29.8,57.7,49.4
			c5.6,5.6,7.3,17.5,9,24.3c0.3,1.3-0.8,11.7,0.9,11.7c4.9,0,9.1-19,12.6-22.5c18.7-18.7,28.3-43.9,57.7-51.3
			c27.8-6.9,58.1,7.3,84.7,12.6c17.1,3.4,36.6,15.6,55.9,10.8c24.8-6.2,25.2-21.2,25.2-44.9c0-6.5-2.6-22.9-2.1-22.9
			c73.9,1.8,120.9-50.7,118.3-48.1c-4.4,4.4,8.7,29.1,9.9,35.1c4.3,20.8,3.7,42.4-1.8,62.9c-2.4,9.6,2.4,21,0,30.6
			c-10.8,43.5-50.2,106.3-104.3,92.8c-18.9-4.7-32.9-14.3-52.4-18.1c-7.2-2.4-14-5.7-20.3-9.9c-13.2-9.9-44-3.2-55.4,8.1
			c-18.9,19.1-35.2,40.6-48.6,63.8c-4.3,7.2-10.5,15.7-12.6,24.3c-0.5,2,1.3,6.7-0.9,8.1c-2.2,1.4-56.8-1.3-57.7-1.8
			c-8.6-5.7,2.3-71.8-9.9-71.8c-2.6,0,0,17.4,0,18.9c0,7.7,2.7,53.9,0,56.6c-2,2-13.1-0.3-16.2,0.9c-7.7,3.1-30.8,11.6-37.8,4.5
			c-6.1-6.1-9.6-18.6-11.7-27c-3.5-14.1-17.3-23.1-20.7-36.9c-4.3-17.2-11-33.3-15.4-50.3c-2.6-10.8-6.2-31.7-0.9-42.3
			c0.3-0.5,1.7-2.8,0.9-3.6c-5.1-5.1-11.7,17.1-39.6,9c-35.5-10.3-27.8-51.8-25.4-63.4c6.5-32.3,15.4-72,30-101.1
			C648.6,545.9,650.3,534.9,650.6,533.8z"/>
		<path class="st11" d="M754.2,715.4c1.2-2.3,27.3-15.7,28.3-9c1.9,11.4-0.9,23.6-0.9,35.1c0,5.4,0.3,10.8,0.9,16.2
			c2.4-1.2,11.1-48.1,18-50.4c6.9-2.3,29.3,9.3,36,12.6c0.5,0.3,3.4,1.3,2.7,2.6c-6.4,12.8-23.7,26.6-30.6,40.5
			c-1,2-13.6,22.9-14.4,22.5c-0.8-0.4-18.8-37.3-22.5-42.2C767.9,738.2,751.8,720.2,754.2,715.4z"/>
		<path class="st11" d="M793.4,861.5c0.2-0.7,52.7,0.9,54,2.2c-0.7,2.2-1.6,4.3-2.6,6.3c-6.3,12.7-12.1,26.3-20.7,37.8
			c-7.7,10.3-10.7,22.2-16.2,33.3c-0.5,1-0.8,3-2.7,1.8c-12.2-8.1-7.4-32.2-9.9-45C793.1,887,790.5,872.5,793.4,861.5z"/>
		<path class="st11" d="M733.5,874.9c1-1.7,45.6-15.4,49.1-8.5c4.3,8.6,3.5,65.8-1.8,73.7c-2.2,3.4-12.8-8.3-14.4-9.9
			c-8.3-8.3-25.7-37.9-31.5-49.4C734.3,879.7,733,875.8,733.5,874.9z"/>
		<path class="st12" d="M645,521.2c-5.6-11.3,1.1-26.2,2.6-31.9c6.1-24.2,28.8-41,51.4-46.8c4.8-1.2,13.4,0.3,16.2,4.5
			c2,3-7.7,2.4,3.1,9.1c10.8,6.7,13.4,6.4,27.1,9.8c13.7,3.4,20.6,4.4,32.5,7.4c26.1,6.6,73.6,8.8,98,3.9c39.9-8,58.5-10,97.6-19.8
			c17.3-4.3,34.4-30.3,54-25.4c3.8,0.9,24.5,1.2,33,5.4c8.5,4.2,17.3,12.8,31,23.1c9.2,6.9,15,22,22.6,29.6
			c6.5,6.5,5.1,11.1,10.3,18c6.1,8.2,21.5,37,15.8,48.5c-3.1,6.2-45.2,58.1-124.5,50.3c-1.6-0.2,0.4-1.8-1.6-0.8
			c-2.1,1,2.6,5.1,2.6,5.4c2,2.7,3.4,5.7,4.2,9c0.8,3.2,0.9,6.6,0.3,9.9c-3.8,15.1-4.8,33.3-20.1,39.4
			c-31,12.4-91.1-20.4-127.8-15.1c-23.5,3.4-40.9,11.5-59.4,26.3c-8.1,6.5-12.4,25-19.6,32.2c-0.5,0.5-1.2,1.1-1.8,0.9
			c-1.9-0.6-3.3-7.7-3.6-9c-1.7-7-10.9-14.1-15.9-19c-12.5-12.4-37.5-17.3-48-31.3c-8.7-11.5-4.1-61,2.1-76.7
			c-7.9-4.5-9.5-12.8-12.8-21.8C688.9,555.6,648.6,528.5,645,521.2z"/>
		<path class="st7" d="M1016.2,591.1c-0.9,0-1.7-0.4-2.4-1c-0.6-0.6-1-1.5-1-2.4c0-0.9,0.4-1.7,1-2.4c0.6-0.6,1.5-1,2.4-1
			c55.7-0.9,77.1-12.6,97.3-33.7c0.3-0.3,0.7-0.6,1.1-0.8c0.4-0.2,0.8-0.3,1.3-0.3c0.4,0,0.9,0.1,1.3,0.2c0.4,0.2,0.8,0.4,1.1,0.7
			c0.3,0.3,0.6,0.7,0.8,1.1c0.2,0.4,0.3,0.8,0.3,1.3c0,0.4-0.1,0.9-0.2,1.3c-0.2,0.4-0.4,0.8-0.7,1.1c-21.4,22.5-44,34.8-102,35.9
			L1016.2,591.1z"/>
		<path class="st7" d="M694.6,533.5h-0.6c-18.3-3-40.2-15.8-49.9-29.2c-0.3-0.4-0.4-0.8-0.5-1.2c-0.1-0.4-0.1-0.9,0-1.3
			c0.1-0.4,0.2-0.9,0.5-1.2c0.2-0.4,0.5-0.7,0.9-1c0.4-0.3,0.8-0.4,1.2-0.5c0.4-0.1,0.9-0.1,1.3,0c0.4,0.1,0.9,0.2,1.2,0.5
			c0.4,0.2,0.7,0.5,1,0.9c8.6,11.9,29,23.8,45.5,26.5c0.8,0.1,1.6,0.6,2.1,1.3c0.5,0.7,0.8,1.5,0.7,2.3c-0.1,0.8-0.4,1.6-1.1,2.2
			S695.5,533.6,694.6,533.5L694.6,533.5z"/>
		<g class="st8">
			<path class="st9" d="M727.2,582.4c43.3-8.7,111.4-12.3,155.4-5c13.4,2.2,64.9,28.3,70.8,16.6c9.1-18.1-32-18.4-39.8-21
				c-41.5-13.8-96.2-14.9-139.3-7.7C767.1,566.4,721.6,583.5,727.2,582.4z"/>
		</g>
		<g class="st8">
			<path class="st9" d="M1015.8,613.3c9.2,45.7-59.4,53.9-73.5,50.2c-10-2.6-18-5.5-28.8-5.5c-1.5,0-4.4-1.5-4.4,0
				c0,0.8,1.4,0.9,2.2,1.1c12.8,3.2,26,4.1,38.7,6.6c15.1,3,24.4,13.5,44.9,8.5C1008.4,671,1038.4,636.4,1015.8,613.3z"/>
		</g>
		<g class="st8">
			<path class="st9" d="M862.9,658.6c-60.7,27.3-124.1,18-144.1-16c9.3,18.8,39.3,40.7,54.2,51.9c8.8,6.6,12.3,18.5,14.4,28.7
				c0.7,3.6-1.6,14.3,0,11c12-23.9,16.5-48.7,43.7-65C836.1,666.1,868.1,656.3,862.9,658.6z"/>
		</g>
		<g class="st8">
			<path class="st9" d="M917.4,729.2c2.6-1.8-10.7,3-13.8,5c-8.2,5.7-15.3,12.8-21,21c-10.9,14.5-43.7,81.2-68.6,75.1
				c-6.3-1.2-12.1-4.3-16.6-8.8c-4.5-4.5-7.6-10.3-8.9-16.5c-0.6-2.4-1.4-19.9-5.5-19.9c-1.4,0-1.8,18.9-2.2,21
				c-2.2,10.7-8.3,13.8-15.4,21c-11.4,11.4-29.4,5.3-42,2.2c-1.7-0.4-15.1-10.3-15.4-10c-1.4,1.4,13.9,26.6,15.4,29.8
				c15.9,31.7,27.8,64.1,53.1,89.4c11.6,11.6,9.8-18.3,8.8-24.3c-1.8-10.8-9.7-83.1,2.2-86.1c3.9-1,1.8,18.6,2.4,22.4
				c3.3,22.9,3.1,49,8.7,71.4c0.6,2.6,4.8,28.2,11,21c7-8.2,20.8-47.9,30.6-67.1c16.9-33.1,37.2-56.1,53.4-88.6
				c8.6-17.1,27.1-30.8,45.3-35.3c6.1-1.5,12.5-2.3,18.8-2.2c0.7,0,2.2,0.7,2.2,0C960.1,745.1,912,733.2,917.4,729.2z"/>
		</g>
		<g class="st8">
			<path class="st9" d="M1011.1,667.9c123.3,61.7,127.6-209.4,6.3-234c-1.9-0.4,3.6-1.1,5.5-1.1c12,0,22,1,33.2,6.6
				c30.1,15,49.5,44.9,69.7,71.8c7.1,9.4,15.1,32.4,12.2,44.1c-1,4.1-6.7,5.5-5.5,10c4,15.9,13.7,30.1,15.4,47.4
				c1.1,11-2.2,23.4,0,34.2c1.6,7.7,5,16,3.3,24.3c-4.5,22.3-18.2,39.9-26.5,60.7c-10,25-26.7,45.3-53.1,51.9
				c-11.3,2.8-25.7-4.8-36.5-6.6c-56.2-9.3-104.6-44.9-159.3-58.5c-31.7-7.9-49.5,17.4-68.6,36.4c-2.1,2.1-16.2,31.3-17.7,29.8
				c-10.7-10.7-6.6-49.5-2.2-60.8c4.3-10.7,22.6-37.1,29.1-38.7c-15.4,41,134.8,12.8,116.3-21.8
				C952.4,661.3,995.8,684.3,1011.1,667.9z"/>
		</g>
		<g class="st8">
			<path class="st9" d="M627.1,611.6c6-19-7.3,25.3-7.7,28.7c-1.4,9.5-0.7,19.3-2.2,28.7c-14,83.9,68.9,37,100.2,26.6
				c17.8-5.9,43.7,34.6,51.5,50.2c3.8,6.3,7.9,12.5,12.3,18.4c2.6,0,19-43.6,10.7-35.5c-8.3,8.1-6.7-35.5-23.1-45.3
				c-16.4-9.8-47.5-29.6-48.5-28.8C648,720.1,611.8,659.5,627.1,611.6z"/>
		</g>
		<path class="st13" d="M687.7,292.8c5.1-20.9,17.8-44.4,36.3-47.9c21.7-4.1,42.2-14.5,63.2-16.1C802.5,227.6,801,215,801,215
			s12.1,8.4,23.3,15.1c14.1,8.4,26,8.5,40.2,4.2c47.6-14.5,75.8-6.5,101.1,39.9c4.7,8.6,32.3,88.7,0.3,141.2
			c-7,11.6-16.8,21.2-28.4,28.2C885.9,475,774.1,485.1,723,419.8C699.1,389.1,678.3,331.7,687.7,292.8z"/>
		<path class="st6" d="M792.1,327.1c-17.3-8.7-39.7,41.6-38.5,54.3c4,46.2,75.3,58.2,109.5,30c36.5-30-13.5-99.4-43.5-87.2"/>
		<path class="st6" d="M682.9,300c-9.4,17.2,16.5,86.6,23.6,92c5.5,4.2,90.2-56.6,53.7-151.5c-1.5-4-49,18.9-55.2,20.2
			C696.3,262.4,686.7,292.9,682.9,300z"/>
		<path class="st6" d="M871.9,239.5c-57.7,134.5,93.6,167,106.2,143.5c11.1-20.7,7.5-71.8-12.8-107.5c-2-3.5-27.1-34.2-30.8-33.5
			C904.6,247,880.8,239.9,871.9,239.5z"/>
		<path class="st6" d="M644.5,620.2c-1.3,0-2.6-0.6-3.5-1.6c-0.9-1-1.4-2.2-1.4-3.6v-14.5c0-1.3,0.5-2.6,1.5-3.5
			c0.9-0.9,2.2-1.4,3.5-1.4c0.7,0,1.3,0.1,1.9,0.4c0.6,0.3,1.1,0.6,1.6,1.1c0.5,0.5,0.8,1,1.1,1.6c0.2,0.6,0.4,1.3,0.4,1.9v14.5
			c0,0.7-0.1,1.3-0.3,1.9c-0.2,0.6-0.6,1.2-1.1,1.6c-0.5,0.5-1,0.8-1.6,1.1C645.8,620.1,645.1,620.2,644.5,620.2z"/>
		<path class="st6" d="M658.5,611.7c-0.7,0-1.3-0.1-1.9-0.4c-0.6-0.3-1.1-0.6-1.6-1.1c-0.5-0.5-0.8-1-1.1-1.6
			c-0.2-0.6-0.4-1.3-0.4-1.9v-14.5c0-1.3,0.5-2.6,1.5-3.5c0.9-0.9,2.2-1.4,3.5-1.4c1.3,0,2.6,0.6,3.5,1.6c0.9,1,1.4,2.2,1.4,3.6
			v14.5c0,1.3-0.6,2.5-1.5,3.4C661.1,611.2,659.8,611.7,658.5,611.7z"/>
		<path class="st6" d="M1112.7,715.3c-0.7,0-1.3-0.1-1.9-0.4c-0.6-0.3-1.2-0.6-1.6-1.1c-0.5-0.5-0.8-1-1.1-1.7s-0.3-1.3-0.3-1.9
			v-14.5c0-0.7,0.1-1.3,0.4-1.9c0.2-0.6,0.6-1.2,1.1-1.6c0.5-0.5,1-0.8,1.6-1.1c0.6-0.2,1.3-0.4,1.9-0.4c1.3,0,2.6,0.6,3.5,1.6
			s1.4,2.2,1.4,3.6v14.5c0,0.6-0.1,1.3-0.4,1.9c-0.3,0.6-0.6,1.2-1.1,1.6c-0.5,0.5-1,0.8-1.6,1.1
			C1114,715.2,1113.3,715.3,1112.7,715.3z"/>
		<path class="st6" d="M1093.9,705.5c-0.7,0-1.3-0.1-1.9-0.4c-0.6-0.3-1.2-0.6-1.6-1.1c-0.5-0.5-0.8-1-1.1-1.7
			c-0.2-0.6-0.3-1.3-0.3-1.9v-14.5c0-1.3,0.5-2.6,1.5-3.5c0.9-0.9,2.2-1.4,3.5-1.4c0.7,0,1.3,0.1,1.9,0.4c0.6,0.3,1.2,0.6,1.6,1.1
			c0.5,0.5,0.8,1,1.1,1.7c0.2,0.6,0.3,1.3,0.3,1.9v14.5c0,1.3-0.5,2.6-1.5,3.5C1096.4,705,1095.2,705.5,1093.9,705.5z"/>
		<path class="st6" d="M1007,422.1c-0.7,0-1.3-0.1-1.9-0.4c-0.6-0.3-1.2-0.6-1.6-1.1s-0.8-1-1.1-1.7c-0.2-0.6-0.4-1.3-0.3-1.9v-14.5
			c0-1.3,0.5-2.6,1.5-3.5c0.9-0.9,2.2-1.4,3.5-1.4c1.3,0,2.6,0.5,3.5,1.5c0.9,0.9,1.4,2.2,1.4,3.5V417c0,0.7-0.1,1.3-0.3,1.9
			c-0.2,0.6-0.6,1.2-1.1,1.6c-0.5,0.5-1,0.8-1.6,1.1C1008.3,422,1007.6,422.1,1007,422.1z"/>
		<path class="st6" d="M1022,413.1c-0.7,0-1.3-0.1-1.9-0.4c-0.6-0.3-1.2-0.6-1.6-1.1c-0.5-0.5-0.8-1-1.1-1.7
			c-0.2-0.6-0.3-1.3-0.3-1.9v-14.5c0-1.3,0.5-2.6,1.5-3.5c0.9-0.9,2.2-1.4,3.5-1.4c0.7,0,1.3,0.1,1.9,0.4c0.6,0.3,1.1,0.6,1.6,1.1
			c0.5,0.5,0.8,1,1.1,1.6c0.2,0.6,0.4,1.2,0.4,1.9V408c0,0.7-0.1,1.3-0.4,1.9c-0.2,0.6-0.6,1.2-1.1,1.6c-0.5,0.5-1,0.8-1.6,1.1
			C1023.3,413,1022.7,413.1,1022,413.1z"/>
		<path class="st6" d="M856.3,799.4c-0.7,0-1.3-0.1-1.9-0.4c-0.6-0.3-1.2-0.6-1.6-1.1c-0.5-0.5-0.8-1-1.1-1.7
			c-0.2-0.6-0.3-1.3-0.3-1.9v-14.5c0-1.3,0.5-2.6,1.5-3.5c0.9-0.9,2.2-1.4,3.5-1.4c0.7,0,1.3,0.1,1.9,0.4c0.6,0.2,1.1,0.6,1.6,1.1
			c0.5,0.5,0.8,1,1.1,1.6c0.2,0.6,0.4,1.2,0.4,1.9v14.5c0,0.7-0.1,1.3-0.4,1.9c-0.2,0.6-0.6,1.2-1.1,1.6c-0.5,0.5-1,0.8-1.6,1.1
			C857.6,799.3,856.9,799.4,856.3,799.4z"/>
		<path class="st6" d="M839.7,809.1c-0.7,0-1.3-0.1-1.9-0.4c-0.6-0.3-1.1-0.6-1.6-1.1c-0.5-0.5-0.8-1-1.1-1.6
			c-0.2-0.6-0.4-1.3-0.4-1.9v-14.5c0-1.3,0.5-2.6,1.5-3.5c0.9-0.9,2.2-1.4,3.5-1.4c1.3,0,2.6,0.6,3.5,1.6c0.9,1,1.4,2.2,1.4,3.6
			v14.5c0,1.3-0.6,2.5-1.5,3.4C842.3,808.6,841,809.1,839.7,809.1z"/>
		<path class="st6" d="M699.9,770.8c-1.3,0-2.6-0.6-3.5-1.6c-0.9-1-1.4-2.2-1.4-3.6v-14.5c0-1.3,0.5-2.6,1.5-3.5
			c0.9-0.9,2.2-1.4,3.5-1.4c0.7,0,1.3,0.1,1.9,0.4c0.6,0.3,1.1,0.6,1.6,1.1c0.5,0.5,0.8,1,1.1,1.6c0.2,0.6,0.4,1.3,0.4,1.9v14.5
			c0,0.7-0.1,1.3-0.3,1.9c-0.2,0.6-0.6,1.2-1.1,1.6c-0.5,0.5-1,0.8-1.6,1.1C701.2,770.7,700.5,770.8,699.9,770.8z"/>
		<g class="st8">
			<path class="st9" d="M686.1,203.9c10.3,0,18.4-4.7,28.4-7.1c2.8-0.6,8.5-3.7,8.5-0.8c0,0.6-1.2,0.5-1.7,0.8
				c-8.6,5.3-15.6,12.7-20.4,21.5c-1.7,3.1-6.2,11.5-5.1,9.5c23.5-43,136.4-69.7,218.2-20.1c3.8,2.3,7.4,4.7,11.1,7.3
				c47.7,34.4,81.9,97.8,75.9,203.6c-0.2,2.6-4.7,22-2.3,22.9c5.1,1.7,25.1-13,31.4-10.6c2.8,1.1,12.8,7.2,15,5.8
				c3.7-2.6,1.2-16.3,1.7-20.5c13.1-106.9-96.6-227.4-106.3-232.9c-36.6-20.5-111.4-43.4-113.1-43.8c-0.3,0-6.8,4-10.3,3.4
				c-12.2-2.1-26-6.7-38.3-10.3c-1.9-0.5-13.2-9.4-13.6-8.6c-1.4,2.8-2.2,18.4-0.9,20.5c1,1.7,7-0.8,5.1-0.8
				c-15.8,0-35.7,5.1-52.7,8.6c-0.6,0-1.7,0.2-1.7,0.8c0,4.9,22.1,1.7,22.1,5.1c0,2.4-30.7,11.2-34.9,14.6c-1.2,1-6.2,4.9-5.1,6
				c4.1,4.1,14.2-1,19.6,1.7"/>
		</g>
		<path class="st7" d="M716,460.3c-0.2,0-0.4,0-0.6,0c-0.9-0.2-1.6-0.7-2.1-1.4c-0.5-0.7-0.7-1.6-0.5-2.5c0.1-1.2,0.1-2.5,0-3.7
			c-0.5,0.3-1.2,0.5-1.8,0.5c-0.6,0-1.2-0.2-1.8-0.5c-2.6-1.5-1.7-4.1-0.9-6.6c0.3-0.8,0.5-1.6,0.7-2.4c0.4-3.4,0.7-6.8,0.7-10.3
			h-0.3c-0.6-0.1-1.1-0.3-1.5-0.7c-0.4-0.3-0.8-0.8-1-1.3c-0.9-2.4-1.1-5-0.5-7.6c0.2-1,0.2-2.1,0.2-3.1c-0.9-4.1-2.5-8.1-4.7-11.7
			l-1.5-3c-37.3-75.4-40.2-136.4-8.8-181.5c1.5-2.2,3-4.4,4.4-6.6c6.3-9.4,12.8-19.2,22.6-25.8c0.7-0.5,1.6-0.7,2.5-0.5
			c0.9,0.2,1.7,0.7,2.2,1.4c0.5,0.7,0.7,1.6,0.5,2.5c-0.2,0.9-0.7,1.6-1.4,2.1c-8.8,5.9-14.9,15.1-20.8,24c-1.5,2.3-3,4.5-4.5,6.7
			c-29.9,42.9-26.8,101.6,9.3,174.6c0.5,0.9,1,1.9,1.5,2.9c2.5,4.3,4.4,9,5.4,13.9c0.1,1.6,0.1,3.2-0.2,4.8v0.2
			c0.3,0,0.6,0.1,0.9,0.2c0.6,0.3,1.1,0.7,1.6,1.2c0.4,0.5,0.7,1.1,0.8,1.8c0.4,4.8,0.3,9.7-0.3,14.5c4.9,1.6,3.4,15.2,3.3,15.4
			c-0.2,0.7-0.6,1.4-1.3,1.8C717.5,460.1,716.7,460.3,716,460.3z"/>
		<path class="st7" d="M682.6,209.6c-0.7,0-1.3-0.2-1.9-0.5c-0.6-0.3-1-0.8-1.3-1.4c-0.3-0.6-0.5-1.2-0.5-1.9c0-5.5,19-16.1,30.3-22
			l-1.4,0.2c-6.2,0.7-12.6,1.4-16.5-1.4c-0.5-0.4-0.8-0.8-1.1-1.4c-0.2-0.5-0.4-1.1-0.3-1.7c0.2-3.7,8.6-8.5,11.3-10.1l4.3-2.6
			c4.9-3.2,10.1-5.8,15.6-7.7h-2.6c-6.7-0.3-9-0.5-10.5-2c-0.4-0.4-0.7-1-0.9-1.6c-0.2-0.6-0.2-1.2,0-1.8c0.2-0.7,0.6-1.2,1.1-1.7
			c0.5-0.5,1.2-0.8,1.8-0.9c5.5-2.7,11.2-4.8,17.1-6.3c9.9-2.3,29.7-5.3,41.1-1.4c0.4,0.1,0.8,0.3,1.2,0.6c0.3,0.3,0.6,0.6,0.8,1
			c0.2,0.4,0.3,0.8,0.4,1.3c0,0.4,0,0.9-0.2,1.3c-0.1,0.4-0.4,0.8-0.7,1.2c-0.3,0.3-0.7,0.6-1.1,0.8c-0.4,0.2-0.9,0.3-1.3,0.3
			c-0.5,0-0.9-0.1-1.3-0.2c-8.7-2.9-25.5-1.2-37.4,1.6c-1.6,0.4-3.2,0.8-4.8,1.3c7.9,0.6,14.4,1.8,14.4,7.1c0,0.7-0.1,1.5-0.4,2.2
			s-0.7,1.3-1.3,1.8c-2.2,2.1-5.6,1.9-8.9,1.7c-1.5-0.2-3-0.2-4.5,0c-5.1,1.8-10,4.2-14.4,7.2c-1.5,0.9-3,1.8-4.4,2.6
			c-1,0.6-2.6,1.6-4.2,2.8c2.2,0,4.7-0.4,6.7-0.6c3.7-0.7,7.6-0.7,11.3-0.2h0.7c0.9,0,1.8,0.2,2.7,0.6c0.8,0.4,1.6,1,2.1,1.7
			c0.3,0.5,0.5,1.1,0.6,1.6c0.1,0.6,0,1.2-0.2,1.7c-0.3,0.9-0.9,1.6-1.7,2.2c-0.8,0.6-1.7,0.9-2.6,0.9h-0.4
			c-8.4,3.8-16.5,8.3-24.3,13.3l2.2-0.7c1.1-0.4,2.3-0.8,3.5-1.2c2-0.6,3.7-0.9,5.3-1.3c3.2-0.6,6.3-1.6,9.2-3.1
			c0.8-0.4,1.7-0.5,2.6-0.2c0.9,0.3,1.6,0.9,2,1.7c0.4,0.8,0.5,1.7,0.2,2.6c-0.3,0.8-0.9,1.6-1.7,2c-3.4,1.7-7,2.9-10.8,3.6
			c-1.5,0.3-3.1,0.7-4.9,1.2c-1.1,0.3-2.1,0.7-3.1,1c-1.7,0.6-3.4,1.2-5.1,1.6c-1.2,0.3-2.3,0.4-3.5,0.6c-1.5,0.2-2.9,0.5-4.3,0.8
			l-0.7,0.4C685,209.1,683.8,209.5,682.6,209.6z"/>
		<path class="st7" d="M982.4,318.7c-2.3,0-4.5-0.8-6.2-2.3c-1.7-1.5-2.9-3.5-3.3-5.7c-0.5-3-14.9-73.5-106.6-66.9
			c-1.3,0.1-2.6-0.1-3.8-0.5c-1.2-0.4-2.4-1-3.3-1.9c-1-0.8-1.8-1.9-2.4-3c-0.6-1.1-0.9-2.4-1-3.7c-0.1-1.3,0.1-2.6,0.5-3.8
			c0.4-1.2,1-2.3,1.9-3.3c0.8-1,1.9-1.8,3-2.3c1.2-0.6,2.4-0.9,3.7-1c56.9-4.1,88.5,18.5,105,38.1c10.9,12.9,18.5,28.3,22.3,44.7
			c0.3,1.4,0.2,2.8-0.2,4.2c-0.4,1.4-1,2.7-1.9,3.8c-0.9,1.1-2.1,2-3.4,2.6c-1.3,0.6-2.7,0.9-4.1,0.9H982.4z"/>
		<g class="st14">
			<path class="st7" d="M672.9,329.4c-0.6,0-1.2-0.1-1.8-0.2c-2.5-0.5-4.7-2-6.2-4.1c-1.4-2.1-2-4.7-1.5-7.2
				c0.3-1.6,7.5-39.1,38.8-65c18-14.8,40-22.8,65.6-23.7c2.5,0,5,1,6.8,2.7c1.8,1.8,2.9,4.1,3,6.7c0.1,2.5-0.8,5-2.5,6.9
				c-1.7,1.9-4,3-6.6,3.2c-21.2,0.8-39.3,7.3-54,19.3c-25.8,21.2-32.1,53.2-32.1,53.5c-0.4,2.2-1.6,4.3-3.4,5.7
				C677.4,328.7,675.2,329.4,672.9,329.4z"/>
		</g>
		<path class="st15" d="M780.2,330.1c-0.3-6.6,12.4-12.5,28.5-13.3c16-0.8,29.3,3.9,29.7,10.5s-12.4,12.5-28.5,13.3
			C793.8,341.4,780.5,336.7,780.2,330.1z"/>
		<path class="st7" d="M768.6,485.5c-0.9,0-1.7-0.4-2.4-1c-0.6-0.6-1-1.5-1-2.4v-6.1c0-0.9,0.4-1.7,1-2.4c0.6-0.6,1.5-1,2.4-1
			c0.9,0,1.7,0.4,2.4,1c0.6,0.6,1,1.5,1,2.4v6.1c0,0.9-0.4,1.7-1,2.4C770.4,485.1,769.5,485.5,768.6,485.5z"/>
		<path class="st7" d="M675.9,536.7c-0.4,0-0.9-0.1-1.3-0.3c-0.4-0.2-0.8-0.4-1.1-0.7c-0.3-0.3-0.6-0.7-0.7-1.1
			c-0.2-0.4-0.2-0.9-0.2-1.3c0-0.4,0.1-0.9,0.3-1.3l2.4-5.5c0.2-0.4,0.4-0.8,0.7-1.1c0.3-0.3,0.7-0.6,1.1-0.7
			c0.4-0.2,0.9-0.2,1.3-0.2c0.4,0,0.9,0.1,1.3,0.3c0.8,0.4,1.5,1,1.8,1.8c0.3,0.8,0.3,1.7,0,2.6l-2.4,5.6c-0.3,0.6-0.7,1.1-1.3,1.5
			C677.2,536.5,676.5,536.7,675.9,536.7z"/>
		<path class="st7" d="M1044.3,599.2c-0.7,0-1.5-0.3-2.1-0.7s-1-1.1-1.2-1.8l-1.6-5.8c-0.1-0.4-0.2-0.9-0.2-1.4s0.2-0.9,0.4-1.3
			c0.2-0.4,0.5-0.8,0.9-1c0.4-0.3,0.8-0.5,1.2-0.6c0.4-0.1,0.9-0.2,1.4-0.1c0.5,0.1,0.9,0.2,1.3,0.5c0.4,0.2,0.7,0.6,1,0.9
			c0.3,0.4,0.5,0.8,0.5,1.2l1.6,5.8c0.1,0.4,0.2,0.9,0.1,1.3c-0.1,0.4-0.2,0.9-0.4,1.3c-0.2,0.4-0.5,0.7-0.9,1
			c-0.3,0.3-0.7,0.5-1.2,0.6C1044.9,599.1,1044.6,599.1,1044.3,599.2z"/>
		<path class="st7" d="M1060.1,595.2c-0.7,0-1.5-0.3-2.1-0.7c-0.6-0.5-1-1.1-1.2-1.8l-1.6-5.8c-0.1-0.4-0.2-0.9-0.1-1.3
			c0.1-0.4,0.2-0.9,0.4-1.2c0.2-0.4,0.5-0.7,0.9-1c0.3-0.3,0.7-0.5,1.2-0.6c0.4-0.1,0.9-0.2,1.3-0.1c0.4,0.1,0.9,0.2,1.2,0.4
			s0.7,0.5,1,0.9c0.3,0.3,0.5,0.7,0.6,1.2l1.6,5.8c0.1,0.4,0.1,0.9,0.1,1.3c-0.1,0.4-0.2,0.9-0.4,1.2c-0.2,0.4-0.5,0.7-0.9,1
			c-0.3,0.3-0.8,0.5-1.2,0.6C1060.7,595.1,1060.4,595.1,1060.1,595.2z"/>
		<path class="st7" d="M925.1,480.1c-0.9,0-1.7-0.4-2.4-1c-0.6-0.6-1-1.5-1-2.4v-6.1c0-0.9,0.4-1.7,1-2.4c0.6-0.6,1.5-1,2.4-1
			c0.9,0,1.7,0.4,2.4,1c0.6,0.6,1,1.5,1,2.4v6.1c0,0.9-0.4,1.7-1,2.4C926.9,479.7,926,480.1,925.1,480.1z"/>
		<path class="st7" d="M901.6,484.5c-0.9,0-1.7-0.4-2.4-1c-0.6-0.6-1-1.5-1-2.4v-6.1c0-0.9,0.4-1.7,1-2.4c0.6-0.6,1.5-1,2.4-1
			c0.9,0,1.7,0.4,2.4,1c0.6,0.6,1,1.5,1,2.4v6.1c0,0.4-0.1,0.9-0.2,1.3c-0.2,0.4-0.4,0.8-0.7,1.1c-0.3,0.3-0.7,0.6-1.1,0.7
			C902.5,484.4,902,484.5,901.6,484.5z"/>
		<path class="st7" d="M788.8,487.9c-0.9,0-1.7-0.4-2.4-1c-0.6-0.6-1-1.5-1-2.4v-6.1c0-0.9,0.4-1.7,1-2.4c0.6-0.6,1.5-1,2.4-1
			c0.9,0,1.7,0.4,2.4,1c0.6,0.6,1,1.5,1,2.4v6.1c0,0.9-0.4,1.7-1,2.4C790.5,487.5,789.7,487.9,788.8,487.9z"/>
		<path class="st7" d="M800,488.9c-0.9,0-1.7-0.4-2.4-1c-0.6-0.6-1-1.5-1-2.4v-6.1c0-0.9,0.4-1.7,1-2.4c0.6-0.6,1.5-1,2.4-1
			c0.9,0,1.7,0.4,2.4,1c0.6,0.6,1,1.5,1,2.4v6.1c0,0.9-0.4,1.7-1,2.4C801.8,488.5,800.9,488.9,800,488.9z"/>
		<path class="st7" d="M895.6,295.6l-2.3-0.2L895.6,295.6z"/>
		<path class="st16" d="M729.6,286.2c7.6,0,15,3,20.4,8.3c5.4,5.4,8.5,12.6,8.5,20.2v1.9c-0.2,7.5-3.4,14.6-8.8,19.8
			c-5.4,5.2-12.6,8.1-20.1,8.1s-14.7-2.9-20.1-8.1c-5.4-5.2-8.5-12.3-8.8-19.8v-1.9c0-7.6,3.1-14.9,8.5-20.2
			S721.9,286.1,729.6,286.2z"/>
		<path class="st7" d="M729.6,348.7c-8.5,0-16.7-3.4-22.7-9.3c-6-6-9.5-14.1-9.5-22.6v-1.9c0.2-8.4,3.7-16.3,9.8-22.2
			c6-5.8,14.1-9.1,22.5-9.1s16.5,3.3,22.5,9.1c6,5.8,9.5,13.8,9.8,22.2v1.9c0,8.5-3.4,16.7-9.5,22.7
			C746.3,345.3,738.1,348.7,729.6,348.7z M729.6,289.5c-6.7,0-13.2,2.6-18,7.4c-4.8,4.7-7.5,11.2-7.5,17.9v1.9
			c0.2,6.6,3,12.9,7.8,17.5c4.8,4.6,11.1,7.2,17.8,7.2s13-2.6,17.8-7.2c4.8-4.6,7.6-10.9,7.8-17.5v-1.9c-0.1-6.7-2.8-13.2-7.6-17.9
			C742.8,292.1,736.3,289.5,729.6,289.5z"/>
		<path class="st16" d="M918.3,282.9c3.8,0,7.5,0.7,11,2.1c3.5,1.4,6.7,3.5,9.4,6.2c2.7,2.7,4.8,5.8,6.3,9.3c1.5,3.5,2.2,7.2,2.2,11
			v1.9c0,7.6-3,15-8.5,20.4c-5.4,5.4-12.8,8.4-20.4,8.4c-7.7,0-15-3-20.4-8.4c-5.4-5.4-8.5-12.7-8.5-20.4v-1.9c0-3.8,0.8-7.5,2.2-11
			c1.5-3.5,3.6-6.6,6.3-9.3c2.7-2.7,5.9-4.8,9.4-6.2C910.8,283.6,914.6,282.9,918.3,282.9z"/>
		<path class="st7" d="M918.3,345.5c-8.5,0-16.7-3.3-22.7-9.3c-6-6-9.5-14.1-9.5-22.6v-1.9c0-8.5,3.4-16.7,9.4-22.7
			c6-6,14.2-9.4,22.8-9.4s16.7,3.4,22.8,9.4c6,6,9.4,14.2,9.4,22.7v1.9c0,8.5-3.4,16.6-9.5,22.6C935,342.2,926.9,345.5,918.3,345.5z
			 M918.3,286.4c-6.7,0-13.2,2.6-18,7.4c-4.8,4.7-7.5,11.2-7.5,17.9v1.9c0.2,6.6,3,12.9,7.8,17.5c4.8,4.6,11.1,7.2,17.8,7.2
			c6.6,0,13-2.6,17.8-7.2c4.8-4.6,7.6-10.9,7.8-17.5v-1.9c0-3.3-0.7-6.7-2-9.7c-1.3-3.1-3.2-5.9-5.5-8.3c-2.4-2.4-5.2-4.2-8.3-5.5
			c-3.1-1.3-6.4-1.9-9.8-1.9V286.4z"/>
		<path class="st7" d="M808.2,362.8c-7.3,0-12.7-4.3-13.4-10.9c0-0.4,0-0.9,0.1-1.3c0.1-0.4,0.3-0.8,0.6-1.2c0.3-0.3,0.6-0.6,1-0.8
			c0.4-0.2,0.8-0.3,1.2-0.4c0.4,0,0.9,0,1.3,0.1c0.4,0.1,0.8,0.3,1.2,0.6s0.6,0.6,0.8,1c0.2,0.4,0.3,0.8,0.4,1.2
			c0.5,4.9,5.9,5.1,7.5,4.9c3.8-0.2,7.9-2.3,7.8-5.3c0-0.9,0.3-1.7,1-2.3c0.6-0.6,1.5-1,2.3-1c0.9,0,1.7,0.3,2.4,1
			c0.6,0.6,1,1.5,1,2.3c0,7.2-7.3,11.6-14.1,12L808.2,362.8z"/>
		<path class="st7" d="M651.2,530.9c-1.5-0.1-3-0.4-4.3-1.1c-1.4-0.7-2.5-1.6-3.5-2.8c-3.1-3.8-3.8-9.7-2.2-17.5
			c5.5-25.6,16.4-44.8,32.4-56.7c10.7-8.1,23.8-12.5,37.3-12.7c0.9,0,1.7,0.4,2.4,1c0.6,0.6,1,1.5,1,2.4c0,0.9-0.4,1.7-1,2.4
			c-0.6,0.6-1.5,1-2.4,1c-11.6,0-50.5,4.6-63.1,64.1c-1.2,5.5-0.9,9.7,0.7,11.8c0.3,0.4,0.7,0.8,1.2,1.1c0.5,0.3,1,0.4,1.5,0.5
			c0.9,0,1.7,0.4,2.3,1.1c0.6,0.6,0.9,1.5,0.9,2.4c0,0.9-0.4,1.7-1,2.3c-0.6,0.6-1.5,1-2.3,1V530.9z"/>
		<path class="st7" d="M835.7,481.8c-38.9,0-81-6.8-121.7-26.2c-0.4-0.2-0.8-0.5-1-0.8c-0.3-0.3-0.5-0.7-0.7-1.1
			c-0.1-0.4-0.2-0.9-0.2-1.3c0-0.4,0.1-0.9,0.3-1.3c0.2-0.4,0.5-0.8,0.8-1c0.3-0.3,0.7-0.5,1.1-0.7c0.4-0.1,0.9-0.2,1.3-0.2
			c0.4,0,0.9,0.1,1.3,0.3c129.2,61.9,274.1-7.7,275.5-8.5c0.4-0.2,0.8-0.3,1.3-0.3c0.4,0,0.9,0,1.3,0.2c0.4,0.1,0.8,0.4,1.1,0.7
			c0.3,0.3,0.6,0.6,0.8,1c0.2,0.4,0.3,0.8,0.3,1.3c0,0.4,0,0.9-0.2,1.3c-0.1,0.4-0.4,0.8-0.7,1.1c-0.3,0.3-0.6,0.6-1,0.8
			C994.5,447.6,923.3,481.8,835.7,481.8z"/>
		<path class="st7" d="M786.6,804c-0.6,0-1.2-0.2-1.8-0.5c-0.5-0.3-1-0.8-1.3-1.4c-8.3-16.5-6-60.6,9.4-92.6
			c38.5-80.5,124.3-56.2,170.4-43.2c11.9,3.4,22.3,6.3,26.7,5.8c4-0.3,7.8-1.4,11.3-3.3c3.5-1.9,6.5-4.6,8.8-7.7
			c12.7-17.4,6.5-48.7,6.4-49.2c-0.2-0.9,0-1.8,0.5-2.5c0.5-0.7,1.3-1.3,2.1-1.4s1.8,0,2.5,0.5c0.7,0.5,1.3,1.3,1.4,2.1
			c0.3,1.4,6.8,34.7-7.7,54.4c-2.9,4-6.6,7.2-10.8,9.6c-4.3,2.4-9,3.9-13.9,4.3c-5.7,0.7-15.6-2.2-29.3-6
			c-47.3-13.4-126.4-35.9-162.5,39.6c-14.3,29.9-16.9,71.8-9.4,86.7c0.4,0.8,0.5,1.7,0.2,2.6c-0.3,0.8-0.9,1.5-1.7,1.9
			C787.7,803.9,787.2,804,786.6,804z"/>
		<path class="st7" d="M1020,615.2c-0.4,0-0.7-0.1-1.1-0.2c-12-4-10.3-11.8-9.1-18.1c0.8-3.1,1.1-6.2,0.8-9.4
			c-2.1-14.4-7.7-28.8-13.2-42.8c-2.6-6.6-5.1-13.5-7.5-20.2c-0.2-0.4-0.3-0.9-0.2-1.3c0-0.5,0.1-0.9,0.3-1.3
			c0.2-0.4,0.5-0.8,0.8-1.1c0.3-0.3,0.7-0.5,1.2-0.7c0.4-0.1,0.9-0.2,1.4-0.2c0.5,0,0.9,0.2,1.3,0.4c0.4,0.2,0.8,0.5,1,0.9
			c0.3,0.4,0.5,0.8,0.6,1.2c2.2,6.6,4.8,13.3,7.4,19.9c5.6,14.4,11.4,29.2,13.5,44.3c0.4,3.9,0.1,7.9-0.9,11.7
			c-1.3,6.2-1.7,8.3,4.7,10.3c0.8,0.2,1.4,0.7,1.9,1.4c0.4,0.7,0.6,1.5,0.5,2.3c-0.1,0.8-0.5,1.5-1.2,2s-1.4,0.8-2.2,0.8V615.2z"/>
		<path class="st7" d="M840.6,504.7c-45.8,0-89.8-9-117.7-22.4c-10-4.8-9.2-10.7-8.5-16c0.6-3.1,0.6-6.4,0-9.5
			c-0.1-0.4-0.1-0.9-0.1-1.3c0.1-0.4,0.2-0.9,0.5-1.2c0.5-0.8,1.2-1.3,2.1-1.5c0.9-0.2,1.8-0.1,2.5,0.4c0.8,0.5,1.3,1.2,1.5,2.1
			c0.9,3.9,0.9,8,0.2,12c-0.6,4.8-0.8,6.3,4.8,9c43.3,20.9,131,30.8,197.5,10.3c0.4-0.2,0.9-0.2,1.3-0.2c0.5,0,0.9,0.1,1.3,0.3
			c0.4,0.2,0.8,0.5,1.1,0.8c0.3,0.3,0.5,0.8,0.7,1.2c0.1,0.4,0.2,0.9,0.1,1.4c0,0.5-0.2,0.9-0.4,1.3c-0.2,0.4-0.5,0.7-0.9,1
			c-0.4,0.3-0.8,0.5-1.2,0.6C897.9,501,869.3,505,840.6,504.7z"/>
		<path class="st7" d="M784,745.6c-0.2,0-0.4,0-0.7,0c-0.9-0.2-1.6-0.7-2.1-1.4c-0.5-0.7-0.7-1.6-0.5-2.5c8.9-43.5-8.7-52-29-61.8
			c-24.2-11.7-51.6-25-28.5-101.3c0.3-0.9,0.8-1.6,1.6-2c0.8-0.4,1.7-0.5,2.6-0.3c0.9,0.3,1.6,0.8,2,1.6c0.4,0.8,0.5,1.7,0.3,2.6
			c-21.5,70.9,1.1,81.8,25,93.3c20.9,10.1,42.6,20.5,32.7,69.2c-0.2,0.7-0.6,1.4-1.2,1.8C785.6,745.4,784.8,745.6,784,745.6z"/>
		<path class="st7" d="M780,948.2c-1.3,0-2.5-0.4-3.6-1.1c-15.7-9.6-44.6-61.9-65-108.6c-12.8-29.6-41.9-101.7-31.9-131.7
			c0.3-0.8,0.9-1.5,1.7-1.9c0.8-0.4,1.7-0.5,2.6-0.2c0.8,0.3,1.5,0.9,1.9,1.7c0.4,0.8,0.5,1.7,0.2,2.6c-6.3,19,5.8,67.6,31.7,126.9
			c22.5,51.3,49.7,97.6,62.2,105.5c3.3-5.4,2.2-36.5,1-69.5c-1-25.6-2.1-57.6-2.1-92.6c0-0.9,0.4-1.7,1-2.4c0.6-0.6,1.5-1,2.4-1
			s1.7,0.4,2.4,1c0.6,0.6,1,1.5,1,2.4c0,34.9,1.2,66.7,2.1,92.3c2,53.3,2.3,71.8-4.5,75.9C782,947.9,781,948.2,780,948.2z"/>
		<path class="st7" d="M1055.8,977.4c-0.7,0-1.4-0.2-2-0.6c-0.6-0.4-1-1-1.2-1.7c-0.2-0.7-0.2-1.4,0-2.1c0.2-0.7,0.7-1.3,1.3-1.7
			l17.6-12.4l15.4-185.3c0.1-0.9,0.5-1.7,1.2-2.2c0.7-0.6,1.5-0.8,2.4-0.8c0.9,0.1,1.7,0.5,2.3,1.1c0.6,0.7,0.9,1.5,0.8,2.4
			L1078.2,961c0,0.5-0.2,1-0.4,1.4c-0.2,0.4-0.6,0.8-1,1.1l-19,13.2C1057.1,977.1,1056.5,977.4,1055.8,977.4z"/>
		<path class="st7" d="M935.8,1031.2c-0.7,0-1.4-0.2-1.9-0.6c-0.6-0.4-1-1-1.2-1.6c-0.2-0.7-0.3-1.4-0.1-2c0.2-0.7,0.6-1.3,1.1-1.7
			l13.8-11.2c5.4-77.4,13.2-192.3,13.1-201.7c-0.2-0.7-0.1-1.4,0.1-2.1c0.3-0.8,0.9-1.4,1.6-1.8c0.7-0.4,1.5-0.5,2.3-0.3
			c3.2,0.7,3.2,0.7,1,35.5c-1,17-2.6,40.6-4.6,70.2c-3.4,51-7,102-7,102c0,0.5-0.2,0.9-0.4,1.3c-0.2,0.4-0.5,0.8-0.9,1.1l-14.9,12.1
			C937.3,1031,936.6,1031.2,935.8,1031.2z"/>
		<path class="st7" d="M727.1,582.6c-0.5,0-1-0.1-1.5-0.4c-21.4-10.7-15.6-39.9-11-63.3c1.6-7,2.7-14.1,3.2-21.2
			c0-0.9,0.4-1.7,1-2.4c0.6-0.6,1.5-1,2.4-1c0.9,0,1.7,0.4,2.4,1c0.6,0.6,1,1.5,1,2.4c-0.4,7.6-1.5,15.1-3.3,22.5
			c-4.2,21.2-9.5,47.6,7.4,56c0.7,0.3,1.2,0.9,1.5,1.6s0.4,1.5,0.2,2.2c-0.2,0.7-0.6,1.4-1.2,1.9
			C728.6,582.4,727.9,582.6,727.1,582.6z"/>
		<path class="st7" d="M841.5,726.6c-0.8,0-1.5-0.3-2.1-0.8c-13.2-10.7-18.6-14-37.9-18.3c-0.5-0.1-0.9-0.2-1.3-0.5
			c-0.4-0.2-0.7-0.6-1-1c-0.3-0.4-0.4-0.8-0.5-1.3c-0.1-0.5-0.1-0.9,0-1.4c0.1-0.5,0.3-0.9,0.6-1.3c0.3-0.4,0.6-0.7,1-0.9
			c0.4-0.2,0.8-0.4,1.3-0.4c0.5-0.1,0.9,0,1.4,0.1c20.2,4.5,26.5,8.1,40.7,19.6c0.5,0.4,0.9,1,1.1,1.7c0.2,0.7,0.2,1.4-0.1,2
			s-0.7,1.2-1.2,1.6C842.9,726.4,842.2,726.6,841.5,726.6z"/>
		<path class="st7" d="M785.3,793.2c-0.2,0-0.5,0-0.7,0c-0.4-0.1-0.8-0.3-1.2-0.5c-0.4-0.3-0.7-0.6-0.9-1c-0.2-0.4-0.4-0.8-0.5-1.2
			c-0.1-0.4-0.1-0.9,0-1.3c6.6-29,13.6-55,33.9-79.7c0.3-0.4,0.6-0.7,1-1s0.9-0.4,1.3-0.5c0.5-0.1,1,0,1.4,0.1
			c0.5,0.1,0.9,0.4,1.3,0.7c0.4,0.3,0.7,0.7,0.9,1.1c0.2,0.4,0.3,0.9,0.3,1.4c0,0.5-0.1,1-0.3,1.4c-0.2,0.4-0.5,0.8-0.8,1.2
			c-19.4,23.7-26,47.8-32.6,76.9c-0.2,0.7-0.6,1.4-1.2,1.8C786.8,793,786.1,793.2,785.3,793.2z"/>
		<path class="st7" d="M754.2,719.5c-0.7,0-1.3-0.2-1.9-0.6c-0.4-0.2-0.7-0.6-0.9-0.9c-0.2-0.4-0.4-0.8-0.5-1.2
			c-0.1-0.4-0.1-0.9,0-1.3c0.1-0.4,0.3-0.8,0.5-1.2c7.7-11.3,24.8-13.8,29.8-14.3c0.4,0,0.9,0,1.3,0.1c0.4,0.1,0.8,0.3,1.2,0.6
			c0.3,0.3,0.6,0.6,0.8,1c0.2,0.4,0.3,0.8,0.4,1.3c0.1,0.9-0.2,1.8-0.8,2.5c-0.6,0.7-1.4,1.1-2.3,1.2c-4.3,0.4-18.8,2.6-24.9,11.5
			c-0.3,0.4-0.7,0.8-1.2,1.1C755.3,719.3,754.7,719.5,754.2,719.5z"/>
		<path class="st7" d="M783.2,773.1c-0.8,0-1.5-0.3-2.1-0.7c-0.6-0.5-1-1.1-1.2-1.8c-1.6-7.1-2.9-14.3-3.7-21.5
			c-1.9-14.1-3.9-28.7-11.4-40.6c-0.5-0.8-0.6-1.7-0.4-2.5c0.2-0.9,0.7-1.6,1.5-2.1s1.7-0.6,2.5-0.4c0.9,0.2,1.6,0.7,2.1,1.5
			c8.3,13.1,10.3,28.4,12.4,43.3c0.8,7,2,14,3.6,20.9c0.1,0.4,0.1,0.9,0,1.3c-0.1,0.4-0.2,0.9-0.5,1.2c-0.2,0.4-0.6,0.7-0.9,1
			c-0.4,0.3-0.8,0.4-1.2,0.5C783.7,773.1,783.5,773.1,783.2,773.1z"/>
		<path class="st7" d="M845.9,865.9c-0.2,0-0.5,0-0.7,0c-11.3-2.6-23.4-2.3-35-2c-4.1,0-8.1,0.2-12.2,0.2c-0.9,0-1.7-0.4-2.4-1
			c-0.6-0.6-1-1.5-1-2.4c0-0.9,0.4-1.7,1-2.4c0.6-0.6,1.5-1,2.4-1c0.3,0,0.5,0,0.8,0c3.7,0,7.5,0,11.3-0.2
			c12.1-0.3,24.6-0.6,36.7,2.1c0.8,0.2,1.5,0.6,2,1.3c0.5,0.7,0.7,1.5,0.6,2.3s-0.5,1.6-1.1,2.1C847.5,865.7,846.7,866,845.9,865.9
			L845.9,865.9z"/>
		<path class="st7" d="M802.7,940.5c-0.9,0-1.7-0.3-2.3-0.9c-1.9-1.8-4.7-4.5,4.5-41.2c4.4-17.6,9.6-35,10.3-36.8
			c0.1-0.4,0.3-0.8,0.6-1.2c0.3-0.3,0.6-0.6,1-0.8c0.4-0.2,0.8-0.3,1.3-0.4c0.4,0,0.9,0,1.3,0.1c0.9,0.3,1.6,0.9,2,1.6
			c0.4,0.8,0.5,1.7,0.2,2.6c-5.7,17.9-18.2,64.9-16.1,71.4c0.4,0.5,0.6,1.1,0.7,1.7c0.1,0.6,0,1.3-0.3,1.8c-0.3,0.6-0.7,1-1.2,1.4
			c-0.5,0.3-1.1,0.5-1.8,0.5H802.7z"/>
		<path class="st7" d="M734.8,874.3c-0.8,0-1.6-0.3-2.3-0.9c-0.6-0.6-1-1.4-1.1-2.2c-0.1-0.8,0.2-1.7,0.7-2.3
			c0.5-0.7,1.3-1.1,2.1-1.3c5.1-1,10.2-2.3,15.1-4.1c11.4-3.6,23.1-7.4,34.6-3.8c0.9,0.3,1.6,0.9,2,1.7s0.5,1.7,0.2,2.6
			c-0.3,0.8-0.9,1.6-1.7,2c-0.8,0.4-1.7,0.5-2.6,0.2c-9.4-2.9-20.1,0.5-30.6,3.8c-5.2,1.8-10.5,3.2-16,4.3L734.8,874.3z"/>
		<path class="st7" d="M781.2,947c-0.9,0-1.7-0.3-2.3-0.9c-10.3-9.8-18.6-35.9-25.7-79.9c-0.1-0.4-0.1-0.9,0.1-1.3
			c0.1-0.4,0.3-0.8,0.6-1.2c0.3-0.4,0.6-0.7,1-0.9c0.4-0.2,0.8-0.4,1.2-0.4c0.4-0.1,0.9-0.1,1.3,0c0.4,0.1,0.8,0.3,1.2,0.5
			c0.4,0.3,0.7,0.6,0.9,1c0.2,0.4,0.4,0.8,0.5,1.2c8.4,52.2,17.5,70.2,23.6,76.1c0.5,0.5,0.8,1.1,0.9,1.7c0.1,0.7,0.1,1.3-0.2,2
			c-0.3,0.6-0.7,1.2-1.2,1.5C782.4,946.8,781.8,947,781.2,947L781.2,947z"/>
		<g>
			<path class="st17" d="M789.3,581.9h1.4c21.3,0,38.5,4,38.5,8.8c0,4.9-17.2,8.9-38.5,8.9h-1.4c-21.3,0-38.5-4-38.5-8.9
				C750.8,585.9,768.1,581.9,789.3,581.9z"/>
		</g>
		<g>
			<path class="st17" d="M870.6,153.9c5.6,4.7,173.9,65.1,165,276.6c0,1.6,12.7,4.2,12.7,1.1c-0.8-26.5-3.1-53-6.9-79.3
				C1027.6,279.9,983.3,194.6,870.6,153.9z"/>
		</g>
		<g>
			<path class="st17" d="M1049.7,434.3c123.3,93.5,119.9,351-12.8,344.9c20,7,25.4,2.6,27.5,2.2c91.9-18.3,93.9-149.6,70.7-218.9
				c-1.5-4.5,9.7-4,7.6-11.3c-3.5-12.1-19.6-47.3-24.8-58.2C1095,445.5,1057.7,435.9,1049.7,434.3z"/>
		</g>
		<g>
			<path class="st17" d="M941.7,740.5c0,0-66.5,4.5-124.3,180.5l-0.2,0.8c-2.3,7.1-4.7,14.5-7,22.2
				c95.5-220.1,144.7-195.1,144.7-195.1L941.7,740.5z"/>
		</g>
		<g>
			<path class="st17" d="M640.8,559.3c-11.3,60.8-21.4,84.6-16.5,118.6c2.1,14.8,7.7,35.6,22.6,40.5c1.2,0.3,2.5,0.6,3.8,0.7
				c-2.9-0.3-5.6-1.1-8.3-2.2c-9.7-5.8-22.5-20-24.8-31.5C610.9,652.2,622,603.5,640.8,559.3z"/>
		</g>
		<g>
			<path class="st17" d="M1158.7,223.4c1.8,24.9-37.3,257.6-40.6,270.2c-2.3,8.9-2.3,8.6,4.9,5c0.7-0.4,0.6-14.2,0.8-16
				c2.1-16.5,51-256.6,50.5-258.3C1173.8,222.6,1158.6,221.7,1158.7,223.4z"/>
		</g>
		<g>
			<path class="st17" d="M920.5,820.8l9,207.3l1.3-206.8l-0.7-61.3l-14.8,5.5L920.5,820.8z"/>
		</g>
		<g>
			<path class="st17" d="M1046.3,790.3l3.5,191.6l7-193.4l-0.3-2.3l-10.1,4.9V790.3z"/>
		</g>
		<g>
			<path class="st17" d="M663.9,741.8l4.7,74.3l11,2.3l31.3,203.8l-39.6-200.4l-10.2-4.8l-4.6-76.6"/>
		</g>
		<path class="st7" d="M787.3,808.7c-0.9,0-1.7-0.4-2.4-1c-0.6-0.6-1-1.5-1-2.4c0-7.7,14.6-51.9,43.7-75.8
			c17.5-14.4,37.4-19.5,58.9-15.2c19.3,3.8,43,16.3,68.1,29.5c44.6,23.4,95.1,50,127.3,29.8c16.3-10.3,95.5-68.1,52.2-209.7
			c-0.2-0.4-0.2-0.9-0.2-1.3c0-0.5,0.1-0.9,0.3-1.3c0.2-0.4,0.5-0.8,0.8-1.1c0.3-0.3,0.7-0.5,1.2-0.7c0.4-0.1,0.9-0.2,1.4-0.1
			c0.5,0,0.9,0.2,1.3,0.4c0.4,0.2,0.7,0.5,1,0.9c0.3,0.4,0.5,0.8,0.6,1.2c44.7,146.2-38,206.7-55.1,217.3
			c-35.6,22.2-87.9-5.3-134-29.6c-24.6-13-47.9-25.2-66.3-28.9c-19.4-3.9-37.3,0.7-53.3,13.8c-28.6,23.4-41.3,66.2-41.3,70.6
			c0,0.9-0.3,1.7-1,2.4C789,808.3,788.2,808.6,787.3,808.7z"/>
		<path class="st7" d="M1134.8,568.4c-0.4,0-0.9-0.1-1.3-0.3c-0.4-0.2-0.8-0.4-1.1-0.7c-2.3-2.3-0.3-4.8,0.8-6.2
			c2.1-2.6,6.1-7.7,4.3-13.2c-18.4-58.4-62.9-117.7-109.1-112.3c-9,1.1-39,6.3-46.6,29.9c-0.1,0.4-0.3,0.9-0.6,1.2
			c-0.3,0.4-0.6,0.7-1,0.9c-0.4,0.2-0.8,0.4-1.3,0.4c-0.5,0-0.9,0-1.4-0.1c-0.4-0.1-0.8-0.4-1.2-0.7c-0.3-0.3-0.6-0.7-0.8-1.1
			c-0.2-0.4-0.3-0.9-0.3-1.3c0-0.5,0.1-0.9,0.2-1.3c8.9-27.3,42.2-33.3,52.2-34.4c23.1-2.6,46.9,8.5,69.1,32.3
			c20,21.5,36.8,51.6,47.2,84.6c2.9,9-3,16.3-5.5,19.4l-0.5,0.6c-0.2,0.5-0.4,1-0.8,1.4c-0.3,0.3-0.7,0.6-1.1,0.7
			C1135.7,568.3,1135.2,568.4,1134.8,568.4z M1137.2,562.7c0.1,0.1,0.2,0.2,0.3,0.3L1137.2,562.7z"/>
		<g>
			<path class="st7" d="M1048.1,434.1c-0.9,0-1.7-0.4-2.4-1c-0.6-0.6-1-1.5-1-2.4c1.9-159.4-90.3-247.1-169.7-273.8
				c-0.4-0.1-0.8-0.4-1.1-0.7c-0.3-0.3-0.6-0.6-0.8-1c-0.2-0.4-0.3-0.8-0.3-1.3c0-0.4,0-0.9,0.2-1.3c0.1-0.4,0.4-0.8,0.7-1.1
				c0.3-0.3,0.6-0.6,1-0.8s0.8-0.3,1.3-0.3c0.4,0,0.9,0,1.3,0.2c58.1,19.5,105,60.1,135.7,117.3c25.6,47.7,39.3,105.5,38.5,163
				c0,0.9-0.4,1.7-1,2.3C1049.8,433.8,1049,434.1,1048.1,434.1z"/>
		</g>
		<path class="st7" d="M904.8,168.9c-0.5,0-1-0.1-1.5-0.4c-10.3-4.7-20.9-8.8-31.8-12.1c-7-2.3-14.3-4.7-21.5-7.6
			c-2.2-0.8-13.4-5.1-20.8-7.7c0.5,0.6,1.1,1.1,1.7,1.6c0.5,0.5,0.9,1.1,1,1.8c0.2,0.7,0.1,1.4-0.2,2c-0.3,0.6-0.7,1.2-1.3,1.5
			c-0.6,0.4-1.3,0.5-2,0.5c-1.7-0.1-3.4-0.3-5.1-0.6c-3-0.7-6-1.2-9.3-1.6c-3.2-0.5-6.9-1.1-10.4-1.9c-11.5-2.5-22.6-6.5-33.1-12
			c-1.7-1.1-3.2-2.5-4.4-4.3L766,128c-1.4,5.3,2.6,13.4,5.1,18.3l0.5,1.1c0.2,0.4,0.3,0.8,0.3,1.3c0,0.4,0,0.9-0.2,1.3
			c-0.1,0.4-0.4,0.8-0.7,1.1c-0.3,0.3-0.6,0.6-1,0.8c-0.4,0.2-0.8,0.3-1.3,0.3c-0.4,0-0.9,0-1.3-0.2c-0.4-0.1-0.8-0.4-1.1-0.7
			c-0.3-0.3-0.6-0.6-0.8-1l-0.5-1.1c-3.3-6.6-8.2-16.6-5.1-24.5c1.1-1.9,2.7-3.5,4.6-4.4c0.5-0.2,1-0.3,1.5-0.3c0.5,0,1,0.2,1.5,0.4
			c1.6,0.9,2.9,2.2,3.9,3.7c0.6,0.9,1.4,1.7,2.3,2.4c9.9,5.2,20.4,9,31.3,11.4c3.3,0.8,6.7,1.3,9.9,1.8c1.6,0.3,3.3,0.5,5,0.8
			c-0.8-1.3-1.2-2.9-1.2-4.4c0.1-0.7,0.4-1.5,0.9-2.1c0.4-0.6,1-1.1,1.7-1.4c1.2-0.6,2.4-1.2,30.8,10c7,2.8,14.2,5.1,21.2,7.4
			c11.1,3.4,22,7.6,32.6,12.4c0.7,0.3,1.2,0.9,1.6,1.6c0.3,0.7,0.4,1.5,0.2,2.2c-0.2,0.7-0.6,1.4-1.2,1.9c-0.6,0.5-1.3,0.7-2.1,0.7
			L904.8,168.9z"/>
		<path class="st7" d="M781.1,777.7c-0.7,0-1.4-0.2-1.9-0.6c-0.6-0.4-1-1-1.2-1.6c-15.8-42.5-32.4-66.4-50.6-73.2
			c-16.3-6-31.6,2.4-46.5,10.5c-10.1,5.6-19.7,10.8-28.8,10.5c-13.5-0.5-23.7-5.7-30.4-15.4c-24.8-36.2,6.9-126.6,20.6-165.1
			c2.1-6.1,3.8-10.8,4.5-13.4c0.2-0.9,0.8-1.6,1.6-2c0.8-0.4,1.7-0.5,2.6-0.3c0.9,0.2,1.6,0.8,2,1.6c0.4,0.8,0.5,1.7,0.3,2.6
			c-0.8,2.8-2.4,7.4-4.7,13.8c-12.1,34.4-44.1,125.7-21.2,159c5.5,8,13.7,12.1,25.1,12.5c7.2,0.2,16-4.6,25.3-9.7
			c15.4-8.5,32.9-18,52.1-10.9c20.2,7.5,38.1,32.8,54.6,77.2c0.3,0.8,0.3,1.8-0.1,2.6c-0.4,0.8-1,1.4-1.9,1.8
			C782,777.6,781.5,777.7,781.1,777.7z"/>
		<path class="st7" d="M1123.8,509.2h-0.5c-0.9-0.1-1.7-0.6-2.2-1.3c-0.5-0.7-0.7-1.6-0.6-2.5c16.6-104.8,46.4-255.2,51.6-281.3
			l-52.4-1.4c-0.9,0-1.7-0.4-2.3-1c-0.6-0.6-0.9-1.5-0.9-2.4c0-0.4,0.1-0.9,0.3-1.3c0.2-0.4,0.4-0.8,0.8-1.1
			c0.3-0.3,0.7-0.5,1.1-0.7c0.4-0.2,0.9-0.2,1.3-0.2l56.3,1.5c0.5,0,1,0.1,1.4,0.4c0.4,0.2,0.8,0.5,1.1,0.9s0.5,0.8,0.6,1.3
			c0.1,0.5,0.1,1,0,1.5c-0.3,1.7-34.2,170.5-52.3,284.9c-0.1,0.8-0.5,1.5-1.2,2C1125.4,509,1124.6,509.2,1123.8,509.2z"/>
		<path class="st7" d="M1053.6,979.4H1034c-0.9,0-1.7-0.3-2.3-0.9c-0.6-0.6-1-1.4-1-2.3l-6.9-177.2l-90.6,22.9c-0.3,0-0.5,0-0.8,0
			l-59.5,0.3c-0.9,0-1.7-0.4-2.4-1c-0.6-0.6-1-1.5-1-2.3c0-0.9,0.4-1.7,1-2.4c0.6-0.6,1.5-1,2.4-1l59.1-0.3l124.4-31.4
			c0.5-0.1,1-0.1,1.5,0c0.5,0.1,1,0.3,1.4,0.7c0.4,0.3,0.7,0.7,1,1.2c0.2,0.5,0.3,1,0.3,1.5l-3.5,189c0,0.4-0.1,0.9-0.3,1.3
			c-0.2,0.4-0.4,0.8-0.7,1.1c-0.3,0.3-0.7,0.6-1.1,0.7C1054.5,979.3,1054.1,979.4,1053.6,979.4z M1037.1,972.7h13.1l3.4-181.3
			l-23.3,5.9L1037.1,972.7z"/>
		<path class="st7" d="M805.4,948.7c-0.4,0-0.8,0-1.2-0.2c-2.2-0.6-7.3-2-12.2-44.5c-3.7-35.8-5.4-71.7-5.1-107.7
			c0-0.9,0.4-1.7,1-2.4c0.6-0.6,1.5-1,2.4-1c0.9,0,1.7,0.4,2.4,1c0.6,0.6,1,1.5,1,2.4c0,78.9,7.1,131,11.9,143.5
			c10.3-17.6,20-37.8,30.1-59c31.5-66,64.2-134.3,121.5-134.3c0.9,0,1.7,0.4,2.4,1c0.6,0.6,1,1.5,1,2.4c0,0.9-0.4,1.7-1,2.4
			c-0.6,0.6-1.5,1-2.4,1c-53.2,0-84.8,66.3-115.4,130.4c-10.8,22.6-21,43.9-32,62.3c-0.4,0.8-1,1.5-1.8,1.9
			C807.1,948.4,806.3,948.7,805.4,948.7z"/>
		<path class="st7" d="M908.2,1034c-0.8,0-1.6-0.3-2.2-0.8c-0.6-0.5-1-1.2-1.1-2L873,823.4c-0.1-0.9,0.1-1.7,0.7-2.4
			c0.5-0.7,1.3-1.2,2.2-1.3c0.9-0.1,1.8,0.1,2.5,0.6c0.7,0.5,1.2,1.3,1.3,2.1L911,1027l19.3-0.6l-3.9-206.3c0-0.9,0.3-1.7,1-2.4
			c0.6-0.6,1.5-1,2.4-1c0.4,0,0.9,0.1,1.3,0.2c0.4,0.2,0.8,0.4,1.1,0.7c0.3,0.3,0.6,0.7,0.7,1.1c0.2,0.4,0.3,0.8,0.3,1.3l4,209.6
			c0,0.9-0.3,1.7-0.9,2.4c-0.6,0.6-1.4,1-2.3,1.1l-25.7,0.7L908.2,1034z"/>
		<path class="st7" d="M727.7,1028l-21.8-0.8c-0.8,0-1.5-0.3-2.1-0.8c-0.6-0.5-1-1.2-1.1-2L667.4,818c-0.1-0.5,0-1,0.1-1.5
			c0.1-0.5,0.4-0.9,0.7-1.3c0.3-0.4,0.7-0.7,1.2-0.9c0.4-0.2,0.9-0.3,1.4-0.3l34,0.7c0.9,0,1.7,0.4,2.4,1c0.6,0.6,1,1.5,0.9,2.4
			c0,0.9-0.4,1.7-1,2.4c-0.6,0.6-1.5,1-2.4,0.9l-30-0.6l34.1,199.7l15.7,0.5l4.4-146.7c0.1-0.9,0.4-1.7,1.1-2.3c0.6-0.6,1.5-1,2.4-1
			c0.9,0,1.7,0.4,2.3,1.1s0.9,1.5,0.9,2.4l-4.5,150.1c0,0.9-0.4,1.7-1,2.3C729.5,1027.6,728.6,1028,727.7,1028L727.7,1028z"/>
		<path class="st7" d="M662.3,821.5c-0.8,0-1.7-0.3-2.3-0.9c-0.6-0.6-1-1.4-1.1-2.2l-5.5-79.1c0-0.4,0-0.9,0.2-1.3
			c0.1-0.4,0.4-0.8,0.7-1.1c0.3-0.3,0.6-0.6,1.1-0.8c0.4-0.2,0.8-0.3,1.3-0.3l22.9-1.4c0.9-0.1,1.8,0.2,2.4,0.8
			c0.7,0.6,1.1,1.4,1.1,2.3c0.1,0.9-0.2,1.8-0.8,2.4c-0.6,0.7-1.4,1.1-2.3,1.1l-19.6,1.2l5.1,72.3l9.2-0.5c0.4,0,0.9,0,1.3,0.2
			c0.4,0.1,0.8,0.4,1.1,0.7c0.3,0.3,0.6,0.6,0.8,1.1c0.2,0.4,0.3,0.8,0.3,1.3c0,0.4,0,0.9-0.2,1.3c-0.1,0.4-0.4,0.8-0.7,1.1
			c-0.3,0.3-0.7,0.6-1,0.8c-0.4,0.2-0.8,0.3-1.3,0.3l-12.5,0.7H662.3z"/>
		<path class="st7" d="M779.3,548.5c18.8,0.5,36,0.6,52.4,1.4c13.6,0.6,17.4,9.3,16.8,17.6c-0.9,11.3-8,19.1-20.4,23.1
			c-0.7,0.2-1.3,0.4-2.6,0.7c12.8,7.1,13.2,21.5,21.5,34.6l-28.3-0.3c-4.5-8-8.6-16.2-12.2-24.7c-1.9-4.4-4.4-7.7-11.8-6.3
			c-2.3,10.1-3.2,20.6-2.4,30.9l-25.5-0.2C764.4,599.4,774.8,573.5,779.3,548.5z M802,564.6c-1.1,5.1-2.3,9.7-3.8,15.4
			c5.6-0.3,10.9-0.2,16.2-0.8c2-0.1,3.9-0.8,5.5-2.1c1.6-1.2,2.7-3,3.2-4.9c1-3.9-0.9-6.9-5.7-7.4
			C812.6,564.4,807.4,564.6,802,564.6z"/>
		<path class="st7" d="M923.7,570.7l-23.9,1.3c-0.3-6.4-3.9-9.8-10.5-10c-2.1-0.3-4.1,0.1-6,1.1c-1.8,1-3.3,2.5-4.2,4.4
			c-0.4,3.7,2.1,4.9,5.1,5.7c5.5,1.4,11.3,2.7,16.9,4.3c3.2,0.9,6.2,2,9.2,3.3c18.9,8.2,14.7,29.9-0.6,40
			c-5.1,3.3-10.9,5.6-16.9,6.6c-9.1,1.6-18.5,1.1-27.4-1.5c-5.6-1.4-10.6-4.8-13.8-9.6c-3.2-4.8-4.6-10.7-3.8-16.4l23-1.1
			c0.3,1.5,0.5,2.9,0.9,4.3c2,7.3,9.9,11,18,8.2c1.7-0.4,3.3-1.3,4.5-2.6c1.2-1.3,2.1-2.9,2.4-4.6c0.2-1.5-0.1-3-0.9-4.3
			c-0.8-1.3-2-2.2-3.5-2.7c-2.6-1-5.3-1.8-8.1-2.6c-5.6-1.7-11.3-3-16.5-5.1c-10-4.1-13.8-11.3-11.8-19.7c1.3-5,4-9.5,7.7-13
			c3.7-3.6,8.3-6.1,13.4-7.2c10.3-2.9,21.2-2.8,31.4,0.2C919.4,553,924.1,559.5,923.7,570.7z"/>
		<path class="st7" d="M918.3,318.3c3.2,0,5.8-2.6,5.8-5.8s-2.6-5.8-5.8-5.8s-5.8,2.6-5.8,5.8S915.1,318.3,918.3,318.3z"/>
		<path class="st7" d="M729.6,320.6c3.2,0,5.8-2.6,5.8-5.8s-2.6-5.8-5.8-5.8c-3.2,0-5.8,2.6-5.8,5.8S726.4,320.6,729.6,320.6z"/>
		<g>
			<defs>
				
					<rect id="SVGID_3_" x="1204.9" y="247.9" transform="matrix(0.133 -0.9911 0.9911 0.133 811.3777 1635.74)" width="271.5" height="212.5"/>
			</defs>
			<clipPath id="SVGID_4_">
				<use xlink:href="#SVGID_3_"  style="display:none;overflow:visible;"/>
			</clipPath>
			<g class="st18">
				<path class="st16" d="M1247.8,261.7c-0.4-0.3-0.8-0.7-1-1.2c-0.2-0.5-0.4-1-0.4-1.5c0-0.5,0-1.1,0.2-1.6c0.2-0.5,0.4-1,0.8-1.4
					l38.3-44.4c0.3-0.4,0.7-0.8,1.2-1c0.5-0.3,1-0.4,1.5-0.4c0.5,0,1.1,0,1.6,0.2c0.5,0.2,1,0.5,1.4,0.8c0.4,0.3,0.8,0.7,1,1.2
					c0.3,0.5,0.4,1,0.5,1.5c0,0.5,0,1.1-0.2,1.6c-0.2,0.5-0.5,1-0.8,1.4l-38.3,44.4c-0.3,0.4-0.7,0.8-1.2,1c-0.5,0.2-1,0.4-1.5,0.5
					c-0.5,0-1.1,0-1.6-0.2C1248.6,262.4,1248.2,262.1,1247.8,261.7z"/>
				<path class="st16" d="M1288.8,239.5c-0.3-0.3-0.5-0.6-0.6-1c-0.1-0.4-0.1-0.8-0.1-1.2c0.1-0.4,0.3-0.8,0.6-1.2
					c0.3-0.3,0.7-0.6,1.1-0.7c1.8-0.7,3.5-1.6,5-2.7c1-0.7,1.9-1.6,2.7-2.6c0.6-0.9,1.1-1.7,1.6-2.6c0.5-1,1.2-1.8,2-2.6
					c0.4-0.5,1-0.9,1.6-1.2c0.6-0.3,1.2-0.4,1.9-0.5c0.7,0,1.3,0.1,1.9,0.3c0.6,0.2,1.2,0.6,1.6,1.1c0.6,0.5,1,1.2,1.2,1.9
					c0.2,0.7,0.3,1.5,0.1,2.3c-0.4,1.8-1.4,3.5-2.7,4.8c-1.2,1.2-2.6,2.2-4.1,2.9c-1.7,0.9-3.5,1.7-5.4,2.4c-1.6,0.6-3.4,1-5.1,1.2
					c-0.6,0.2-1.2,0.2-1.8,0.1C1289.8,240.1,1289.2,239.9,1288.8,239.5z"/>
				<path class="st16" d="M1275.4,286.5c-0.3-0.4-0.6-0.9-0.8-1.3c-0.2-0.5-0.2-1-0.2-1.5c0-0.5,0.2-1,0.5-1.5
					c0.3-0.5,0.6-0.9,1-1.2l30.2-24.6c0.4-0.4,0.9-0.6,1.4-0.8c0.5-0.2,1-0.2,1.6-0.2c0.8,0.1,1.6,0.4,2.2,0.9
					c0.6,0.5,1.1,1.2,1.3,1.9c0.2,0.8,0.2,1.6,0,2.3c-0.2,0.8-0.7,1.4-1.4,1.9l-30.2,24.6c-0.4,0.4-0.8,0.6-1.3,0.8
					c-0.5,0.2-1,0.2-1.5,0.2c-0.5-0.1-1-0.2-1.5-0.5C1276.1,287.3,1275.7,286.9,1275.4,286.5z M1293.9,309c-0.3-0.4-0.6-0.9-0.8-1.4
					c-0.2-0.5-0.2-1-0.2-1.5c0.1-0.5,0.2-1,0.5-1.5c0.3-0.5,0.6-0.9,1-1.2l19-15.5c2.6-1.8,4.3-4.6,4.9-7.7c0.2-1.4,0-2.7-0.4-4.1
					c-0.4-1.3-1.1-2.5-2-3.5c-0.9-1.2-2-2.1-3.3-2.8c-1.3-0.7-2.7-1.1-4.2-1.2c-1.5-0.1-3.1,0.1-4.5,0.6c-1.4,0.5-2.8,1.3-3.9,2.3
					l-3.3-4c2.6-2.1,5.7-3.6,9-4.3c3-0.6,6.2-0.4,9.1,0.6c3,1.1,5.6,2.9,7.5,5.4c2,2.3,3.3,5.2,3.9,8.2c0.5,2.9,0.1,6-1.2,8.7
					c-1.5,3.2-3.7,5.9-6.5,8l-19,15.5c-0.4,0.3-0.8,0.6-1.3,0.8c-0.5,0.2-1,0.2-1.5,0.2c-0.5,0-1.1-0.2-1.5-0.5
					C1294.7,309.8,1294.3,309.4,1293.9,309z M1312.4,331.4c-0.3-0.4-0.6-0.9-0.8-1.3c-0.2-0.5-0.2-1-0.2-1.5c0.1-0.5,0.2-1,0.5-1.5
					c0.3-0.5,0.6-0.9,1-1.2l19-15.5c2.6-1.8,4.3-4.6,4.9-7.7c0.2-1.4,0-2.7-0.4-4c-0.4-1.3-1.1-2.5-2-3.5c-0.9-1.2-2-2.1-3.3-2.8
					c-1.3-0.7-2.7-1.1-4.2-1.2c-3.1-0.1-6.2,1-8.5,3l-4.2-5.2c2.7-2.2,5.9-3.7,9.3-4.4c3.2-0.6,6.4-0.3,9.4,0.9
					c3.1,1.2,5.9,3.3,8,5.9c2,2.3,3.4,5.1,3.9,8.2c0.5,2.9,0.1,6-1.2,8.7c-1.5,3.2-3.7,5.9-6.5,8l-19,15.5c-0.4,0.3-0.8,0.6-1.3,0.8
					c-0.5,0.2-1,0.2-1.5,0.2c-0.5,0-1.1-0.2-1.5-0.4C1313.1,332.1,1312.7,331.8,1312.4,331.4z"/>
				<path class="st16" d="M1336.5,370.5c-0.3-0.5-0.4-1-0.5-1.5c-0.1-0.5,0-1,0.2-1.5c0.1-0.5,0.4-0.9,0.7-1.3
					c0.3-0.4,0.7-0.7,1.2-0.9l37.9-20.1c3.2-1.8,6.9-2.8,10.6-3c3.5,0,7,1.1,9.8,3.2c3.6,2.8,6.5,6.4,8.5,10.4c1.1,2,2,4.2,2.5,6.5
					c0.5,1.8,0.5,3.6,0.2,5.4c-0.1,0.7-0.4,1.3-0.8,1.9c-0.4,0.6-1,1-1.6,1.3c-2.2,1.2-4,0.5-5.4-2.1c-0.5-0.9-0.8-1.9-0.7-3
					c0.1-1.1,0.2-2.1,0.4-3.2c0.2-1.1,0.2-2.2,0.2-3.3c0-1.2-0.4-2.4-1-3.5c-1-1.8-2.4-3.5-4-4.7c-1.8-1.3-3.9-1.9-6.1-1.8
					c-3.1,0.2-6.1,1.2-8.7,2.8l-37.9,20c-0.5,0.3-1,0.4-1.5,0.5c-0.5,0.1-1,0-1.5-0.1c-0.5-0.1-1-0.4-1.4-0.7
					C1337,371.3,1336.7,370.9,1336.5,370.5z M1349.6,394.9c-0.3-0.5-0.4-1-0.5-1.5c-0.1-0.5,0-1,0.1-1.5c0.1-0.5,0.4-1,0.7-1.4
					c0.3-0.4,0.8-0.7,1.2-1l34.4-18.2c0.5-0.3,1-0.4,1.5-0.5c0.5-0.1,1.1,0,1.6,0.1c1,0.4,1.8,1.1,2.3,2c0.5,0.9,0.6,2,0.4,3
					c-0.2,0.5-0.4,1-0.8,1.3c-0.3,0.4-0.8,0.7-1.2,0.9l-34.4,18.2c-0.4,0.3-1,0.4-1.5,0.5c-0.5,0.1-1,0-1.5-0.1
					c-0.5-0.1-1-0.4-1.4-0.7C1350.1,395.8,1349.8,395.3,1349.6,394.9L1349.6,394.9z M1366.4,345.2c-0.2-0.4-0.4-0.9-0.5-1.3
					c-0.1-0.5,0-1,0.1-1.4c0.1-0.5,0.3-0.9,0.6-1.2c0.3-0.4,0.6-0.7,1.1-0.9c0.4-0.2,0.8-0.4,1.3-0.4c0.5-0.1,0.9,0,1.4,0.1
					c0.9,0.3,1.7,1,2.1,1.9l10.2,19c0.5,0.8,0.6,1.8,0.4,2.8c-0.1,0.5-0.3,0.9-0.6,1.2c-0.3,0.4-0.7,0.7-1.1,0.9
					c-0.4,0.2-0.8,0.3-1.3,0.4c-0.4,0-0.9,0-1.3-0.2c-0.9-0.3-1.7-1-2.1-1.9L1366.4,345.2z"/>
				<path class="st16" d="M1359.1,415.1c-0.2-0.5-0.3-1-0.3-1.5c0-0.5,0.1-1,0.3-1.5c0.2-0.5,0.5-0.9,0.9-1.3s0.8-0.6,1.3-0.8
					l36.2-14.8c0.5-0.2,1-0.3,1.5-0.4c0.5,0,1.1,0.1,1.5,0.3c1,0.4,1.7,1.2,2,2.2c0.2,0.5,0.4,1,0.4,1.5c0,0.5-0.1,1-0.3,1.5
					c-0.2,0.5-0.5,0.9-0.9,1.3c-0.4,0.4-0.8,0.6-1.3,0.8l-36.1,14.8c-1,0.4-2,0.5-3,0.1c-0.5-0.2-0.9-0.5-1.3-0.9
					C1359.6,416,1359.3,415.6,1359.1,415.1z M1372.9,448.1c-0.2-0.5-0.3-1-0.3-1.5c0-0.5,0.1-1.1,0.3-1.5c0.2-0.5,0.5-0.9,0.8-1.2
					c0.4-0.4,0.8-0.6,1.3-0.8l20-8.2c2.7-1,5.1-2.7,6.9-4.9c1.5-1.9,2.3-4.1,2.5-6.5c0.1-2.5-0.3-5-1.4-7.3
					c-0.9-2.2-2.3-4.2-4.1-5.8c-1.6-1.5-3.6-2.5-5.7-3c-2.1-0.5-4.2-0.3-6.2,0.5l-2-4.7c3.2-1.3,6.6-1.7,10-1.1
					c3.3,0.5,6.4,1.9,8.9,4.1c2.7,2.3,4.9,5.2,6.2,8.5c1.5,3.4,2.1,7.1,1.8,10.8c-0.4,3.5-1.7,6.8-3.9,9.5c-2.6,3.2-6.1,5.6-10,7
					l-19.9,8.2c-1,0.4-2,0.4-3,0C1374.1,449.8,1373.3,449.1,1372.9,448.1L1372.9,448.1z"/>
				<path class="st16" d="M1385.1,484.9c-1.4-4.1-1.7-8.6-0.9-12.8c0.8-4,2.6-7.6,5.4-10.6c2.9-3.1,6.7-5.4,10.8-6.6
					c4.1-1.4,8.4-1.7,12.7-1c3.9,0.7,7.5,2.5,10.4,5.1c3.1,2.8,5.3,6.4,6.5,10.4c1.3,3.8,1.5,7.8,0.6,11.7c-0.9,3.6-2.8,6.9-5.5,9.4
					c-3,2.8-6.6,4.9-10.6,6c-0.4,0.1-0.9,0.2-1.3,0.2c-0.5,0-0.9-0.2-1.3-0.4c-0.4-0.2-0.8-0.5-1.1-0.9c-0.3-0.4-0.5-0.8-0.6-1.3
					l-10.7-33.4l6.1-1.9l10.7,33.5l-3.4-2.6c2.7-0.9,5.1-2.3,7.2-4.2c1.9-1.7,3.2-3.9,3.9-6.3c0.7-2.6,0.5-5.3-0.3-7.8
					c-0.8-2.8-2.4-5.4-4.7-7.3c-2.1-1.8-4.7-2.9-7.5-3.3c-3-0.4-6-0.1-8.9,0.8c-2.9,0.9-5.6,2.5-7.6,4.7c-2,2.1-3.3,4.7-3.9,7.5
					c-0.6,3-0.4,6.2,0.6,9.1c0.6,1.8,1.5,3.5,2.7,5c1,1.4,2.3,2.7,3.7,3.7c0.8,0.5,1.4,1.3,1.7,2.1c0.3,0.8,0.3,1.7,0,2.5
					c-0.4,0.9-1.1,1.7-2.1,2c-0.4,0.2-0.9,0.2-1.4,0.2c-0.5-0.1-0.9-0.2-1.3-0.5c-2.3-1.6-4.2-3.5-5.9-5.7
					C1387.4,490,1386,487.5,1385.1,484.9z"/>
			</g>
		</g>
	</g>
</g>
</svg>
