<svg id="Layer_1" enable-background="new 0 0 512 512" height="100%" viewBox="0 0 512 512" width="100%" xmlns="http://www.w3.org/2000/svg">
    <g>
        <path d="m129.65 45.66 37.57 37.87h328.56v381.76h-480v-421.22z" fill="#efb338" />
    </g>
    <g>
        <path d="m128.87 46.71h-113.09v47.36h113.99c3.57 0 7.02 1.31 9.69 3.67l10.3 9.13c2.67 2.37 6.12 3.67 9.69 3.67h58.67c4.63 0 8.99-2.2 11.75-5.92l13.65-18.46h-76.3z" fill="#d39629" />
    </g>
    <g>
        <path d="m495.78 169.37-34.79-7.37v202.99c0 12.64-9.59 23.21-22.16 24.44l-249.33 24.36c-12.58 1.23-22.16 11.8-22.16 24.44v29.7h328.45v-298.56z" fill="#d39629" />
    </g>
    <g>
        <path d="m460.99 162h-409.55v-28.85c0-4.25 3.45-7.7 7.7-7.7h394.15c4.25 0 7.7 3.45 7.7 7.7z" fill="#e4e8eb" />
    </g>
    <g>
        <path d="m453.29 125.45h-105.16v19.11c0 2.38-1.06 4.64-2.9 6.15l-13.67 11.29h129.43v-28.85c0-4.25-3.45-7.7-7.7-7.7z" fill="#cad0d7" />
    </g>
    <g>
        <path d="m226.49 399.93c-12.25 2.49-24.58 4.08-36.97 5.55l-3.09.33c-12.63.95-23.83 10.34-27.14 22.63-1.62 5.91-1.24 12.15-1.91 18.25-.02.27-.25.47-.52.44-.24-.02-.42-.21-.44-.44-.33-4.16-.61-8.27-.81-12.47-1-16.36 12.45-31.57 28.74-33.1 1.14-.19 3.56-.3 4.71-.44 12.43-.95 24.84-1.78 37.34-1.71.27 0 .49.22.49.49-.01.23-.18.43-.4.47z" fill="#fff" />
    </g>
    <g>
        <path d="m240.93 398.52c-2.22 2.93-6.25 3.32-9 .88-.27-.25-.31-.67-.09-.96 2.22-2.93 6.25-3.33 9-.88.27.24.31.66.09.96z" fill="#fff" />
    </g>
    <path d="m508.26 372.49c-.32-85.13-1.28-201.45-2.16-286.58-.07-5.39-4.5-9.7-9.89-9.63 0 0-82.14 1.08-82.14 1.08-75.77 1.18-169.24 2.77-244.84 4.76-12.73-12.37-25.41-24.79-38.19-37.1-.31-.3-.68-.49-1.07-.59-.21-.06-.43-.11-.67-.13 0 0-28.27-.83-28.27-.83-18.47-.53-65.58-1.72-84.82-2.12-2.9-.07-5.31 2.24-5.36 5.14-2.68 132.04-4.67 289.37-5.71 421.46-.05 6.13 4.95 11.11 11.08 11.06 109.98 1.04 249.56 1.18 360 1.42.04-.04 120.06-.09 120.08-.14 6.8-.02 12.3-5.55 12.28-12.35-.01-.01-.32-95.45-.32-95.45zm-252.04 83.11c-64.08.05-162.01.83-229.01 1.19-1.04-127.86-2.96-277.67-5.51-404.83 31.62-.63 76.56-2.06 106.55-2.82 12.13 13.32 24.36 26.54 36.54 39.81.66.72 1.61 1.19 2.67 1.21 76.09 1.85 170.08 3.79 246.63 4.81l72.15.95c-.21 20.73-.43 43.08-.63 66.23-2.17-2.35-4.85-4.24-7.81-5.35-2.75-1.25-6.96-1.57-9.6-1.68 0 0-2.53-.16-4.68-.3v-21.66c0-5.63-4.58-10.2-10.2-10.2h-394.18c-5.63 0-10.2 4.58-10.2 10.2v24.8c-2.41.22-4.82.43-7.22.67-3.79.28-7.57 1.81-10.36 4.24-.84.72-1.1 1.94-.57 2.96.62 1.22 2.16 1.66 3.35.99 2.42-1.24 4.99-1.73 7.59-1.43 6.98.68 14.05 1.29 21.04 1.83 131.67 9.39 263.95 9.51 395.74 2.27v195.51c0 11.4-8.56 20.84-19.91 21.95l-249.34 24.35c-13.92 1.36-24.42 12.93-24.42 26.92v4.74c0 1.38 1.12 2.5 2.5 2.5s2.5-1.12 2.5-2.5v-4.74c0-11.4 8.56-20.84 19.91-21.95l249.33-24.37c13.92-1.36 24.42-12.94 24.42-26.92v-195.8c2.87-.19 6.65-.43 7.96-.52 4.23-.09 7.93 2.51 9.46 6.64 1.47 3.26 2.98 6.51 4.48 9.76-.55 64.26-1.02 132.38-1.22 187.42l-.27 83.07c-62.77-.06-171.8-.19-227.69.05zm-144.8-327.65-27.42 27.42c-6.95.44-13.89.9-20.84 1.39l28.81-28.81zm26.52 0-25.75 25.75c-6.88.37-13.76.78-20.64 1.2l26.95-26.95zm26.51 0-24.39 24.39c-6.81.3-13.62.64-20.43.99l25.38-25.38zm26.51 0-23.3 23.3c-6.74.24-13.48.5-20.23.78l24.09-24.09h19.44zm26.52 0-22.48 22.48c-6.68.17-13.35.37-20.03.59l23.07-23.07zm240.96 4.73c.01.16.05.31.05.48v21.36c-6.94-.38-13.87-.74-20.81-1.08zm-27.51 20.44c-6.2-.29-12.4-.58-18.61-.83l24.34-24.34h16.63c.82 0 1.58.21 2.27.54zm-25.41-1.1c-6.25-.25-12.49-.49-18.74-.7l23.36-23.36h19.44zm-25.6-.91c-6.29-.2-12.58-.4-18.87-.57l22.58-22.58h19.44zm-25.79-.73c-6.34-.15-12.68-.31-19.02-.42l22-22h19.44zm-25.98-.53c-6.39-.11-12.78-.21-19.17-.27l21.62-21.62h19.44zm-26.19-.33c-6.44-.05-12.89-.1-19.33-.12l21.45-21.45h19.44zm-26.4-.11c-6.5 0-13 .01-19.49.05l21.5-21.51h19.44zm-26.62.11c-6.56.05-13.11.12-19.66.22l21.78-21.78h19.44zm-26.85.34c-6.61.11-13.23.25-19.84.4l22.3-22.3h19.44zm-166.61 7.53c-.51.04-1.02.08-1.54.13v-24.36c0-2.87 2.33-5.2 5.2-5.2h25.77z" />
    <g>
        <path d="m308.65 107.73c27.79-1.97 56.93-2.13 84.83-1.9 16.98.26 33.94.67 50.9 1.91.27.02.47.25.45.52-.02.24-.21.43-.45.45-27.79 1.96-56.93 2.13-84.83 1.91-16.98-.26-33.94-.66-50.9-1.91-.27-.02-.47-.25-.45-.52.02-.25.22-.44.45-.46z" fill="#fff" />
    </g>
</svg>